<svg xmlns="http://www.w3.org/2000/svg" xmlns:xlink="http://www.w3.org/1999/xlink" width="122" height="122">
  <defs>
    <linearGradient id="h" x1="0%" y1="50%" y2="50%">
      <stop offset="0%" stop-color="#5B79A2"/>
      <stop offset="100%" stop-color="#2E4469"/>
    </linearGradient>
    <linearGradient id="i" x1="13.61%" x2="77.536%" y1="20.244%" y2="72.706%">
      <stop offset="0%" stop-color="#80A4D5"/>
      <stop offset="100%" stop-color="#2E4469"/>
    </linearGradient>
    <linearGradient id="j" x1="0%" y1="50%" y2="50%">
      <stop offset="0%" stop-color="#5B79A2"/>
      <stop offset="100%" stop-color="#2E4469"/>
    </linearGradient>
    <linearGradient id="k" x1="13.908%" x2="77.31%" y1="-15.525%" y2="100%">
      <stop offset="0%" stop-color="#80A4D5"/>
      <stop offset="100%" stop-color="#2E4469"/>
    </linearGradient>
    <linearGradient id="n" x1="98.741%" x2="1.259%" y1="48.741%" y2="48.741%">
      <stop offset="0%" stop-color="#21C8F6"/>
      <stop offset="100%" stop-color="#637BFF"/>
    </linearGradient>
    <linearGradient id="o" x1="13.908%" x2="77.31%" y1="-15.525%" y2="100%">
      <stop offset="0%" stop-color="#80A4D5"/>
      <stop offset="100%" stop-color="#2E4469"/>
    </linearGradient>
    <linearGradient id="p" x1="0%" y1="50%" y2="50%">
      <stop offset="0%" stop-color="#5B79A2"/>
      <stop offset="100%" stop-color="#2E4469"/>
    </linearGradient>
    <linearGradient id="q" x1="13.61%" x2="77.536%" y1="47.357%" y2="52.017%">
      <stop offset="0%" stop-color="#80A4D5"/>
      <stop offset="100%" stop-color="#2E4469"/>
    </linearGradient>
    <linearGradient id="r" x1="0%" y1="50%" y2="50%">
      <stop offset="0%" stop-color="#6F90BC"/>
      <stop offset="100%" stop-color="#2E4469"/>
    </linearGradient>
    <linearGradient id="s" x1="0%" y1="50%" y2="50%">
      <stop offset="0%" stop-color="#6F90BC"/>
      <stop offset="100%" stop-color="#2E4469"/>
    </linearGradient>
    <linearGradient id="t" x1="13.61%" x2="77.536%" y1="42.866%" y2="55.444%">
      <stop offset="0%" stop-color="#80A4D5"/>
      <stop offset="100%" stop-color="#2E4469"/>
    </linearGradient>
    <linearGradient id="v" x1="24.379%" x2="84.171%" y1="5.536%" y2="97.907%">
      <stop offset="0%" stop-color="#76E1FF"/>
      <stop offset="100%" stop-color="#637BFF" stop-opacity="0"/>
    </linearGradient>
    <linearGradient id="x" x1="7.541%" x2="276.807%" y1="27.213%" y2="179.504%">
      <stop offset="0%" stop-color="#76E1FF"/>
      <stop offset="100%" stop-color="#637BFF" stop-opacity="0"/>
    </linearGradient>
    <linearGradient id="y" x1="50%" x2="50%" y1="0%" y2="97.483%">
      <stop offset="0%" stop-color="#21C8F6"/>
      <stop offset="100%" stop-color="#637BFF"/>
    </linearGradient>
    <linearGradient id="B" x1="98.741%" x2="1.259%" y1="48.741%" y2="48.741%">
      <stop offset="0%" stop-color="#21C8F6"/>
      <stop offset="100%" stop-color="#637BFF"/>
    </linearGradient>
    <linearGradient id="C" x1="38.152%" x2="41.989%" y1="78.776%" y2="102.32%">
      <stop offset="0%" stop-color="#55739C"/>
      <stop offset="100%" stop-color="#4179D5"/>
    </linearGradient>
    <linearGradient id="D" x1="1.259%" x2="98.741%" y1="48.741%" y2="48.741%">
      <stop offset="0%" stop-color="#21C8F6"/>
      <stop offset="100%" stop-color="#637BFF"/>
    </linearGradient>
    <linearGradient id="E" x1="13.01%" x2="50%" y1="-5.194%" y2="125.475%">
      <stop offset="0%" stop-color="#57DBFF"/>
      <stop offset="100%" stop-color="#637BFF" stop-opacity="0"/>
    </linearGradient>
    <linearGradient id="H" x1="154.902%" x2="24.379%" y1="138.188%" y2="14.184%">
      <stop offset="0%" stop-color="#76E1FF"/>
      <stop offset="100%" stop-color="#637BFF" stop-opacity="0"/>
    </linearGradient>
    <linearGradient id="I" x1="13.96%" x2="105.629%" y1=".616%" y2="98.781%">
      <stop offset="0%" stop-color="#587CB9"/>
      <stop offset="100%" stop-color="#2E4469" stop-opacity="0"/>
    </linearGradient>
    <linearGradient id="M" x1="98.741%" x2="1.259%" y1="48.741%" y2="48.741%">
      <stop offset="0%" stop-color="#21C8F6"/>
      <stop offset="100%" stop-color="#637BFF"/>
    </linearGradient>
    <linearGradient id="R" x1="16.192%" x2="84.563%" y1="0%" y2="94.065%">
      <stop offset="0%" stop-color="#57DBFF"/>
      <stop offset="100%" stop-color="#637BFF" stop-opacity="0"/>
    </linearGradient>
    <linearGradient id="S" x1="98.741%" x2="1.259%" y1="48.741%" y2="48.741%">
      <stop offset="0%" stop-color="#21C8F6"/>
      <stop offset="100%" stop-color="#637BFF"/>
    </linearGradient>
    <linearGradient id="T" x1="98.741%" x2="1.259%" y1="48.741%" y2="48.741%">
      <stop offset="0%" stop-color="#21C8F6"/>
      <stop offset="100%" stop-color="#637BFF"/>
    </linearGradient>
    <linearGradient id="U" x1="30.414%" x2="50%" y1="31.624%" y2="68.376%">
      <stop offset="0%" stop-color="#5B79A2"/>
      <stop offset="100%" stop-color="#2E4469"/>
    </linearGradient>
    <linearGradient id="X" x1="46.014%" x2="55.51%" y1="2.256%" y2="100%">
      <stop offset="0%" stop-color="#374F73"/>
      <stop offset="100%" stop-color="#253652"/>
    </linearGradient>
    <linearGradient id="Y" x1="50%" x2="50%" y1="149.484%" y2="0%">
      <stop offset="0%" stop-color="#5B79A2"/>
      <stop offset="100%" stop-color="#2E4469"/>
    </linearGradient>
    <linearGradient id="ab" x1="98.741%" x2="1.259%" y1="48.741%" y2="48.741%">
      <stop offset="0%" stop-color="#21C8F6"/>
      <stop offset="100%" stop-color="#637BFF"/>
    </linearGradient>
    <linearGradient id="ac" x1="34.594%" x2="60.398%" y1="40.953%" y2="55.694%">
      <stop offset="0%" stop-color="#5B79A2"/>
      <stop offset="100%" stop-color="#2E4469"/>
    </linearGradient>
    <linearGradient id="ad" x1="0%" y1="50%" y2="50%">
      <stop offset="0%" stop-color="#6F90BC"/>
      <stop offset="100%" stop-color="#2E4469"/>
    </linearGradient>
    <linearGradient id="ae" x1="13.01%" x2="50%" y1="44.97%" y2="56.878%">
      <stop offset="0%" stop-color="#57DBFF"/>
      <stop offset="100%" stop-color="#637BFF" stop-opacity="0"/>
    </linearGradient>
    <linearGradient id="ah" x1="75.874%" x2="92.229%" y1="34.347%" y2="96.254%">
      <stop offset="0%" stop-color="#5B79A2"/>
      <stop offset="100%" stop-color="#2E4469"/>
    </linearGradient>
    <linearGradient id="an" x1="71.928%" x2="16.833%" y1="0%" y2="100%">
      <stop offset="0%" stop-color="#476698"/>
      <stop offset="100%" stop-color="#253652"/>
    </linearGradient>
    <filter id="e" width="133.3%" height="250%" x="-16.7%" y="-75%" filterUnits="objectBoundingBox">
      <feGaussianBlur in="SourceGraphic" stdDeviation="1"/>
    </filter>
    <filter id="g" width="116.2%" height="250%" x="-8.1%" y="-75%" filterUnits="objectBoundingBox">
      <feGaussianBlur in="SourceGraphic" stdDeviation="1"/>
    </filter>
    <filter id="l" width="384%" height="382.9%" x="-142%" y="-101%" filterUnits="objectBoundingBox">
      <feOffset dy="2" in="SourceAlpha" result="shadowOffsetOuter1"/>
      <feGaussianBlur in="shadowOffsetOuter1" result="shadowBlurOuter1" stdDeviation="2"/>
      <feColorMatrix in="shadowBlurOuter1" values="0 0 0 0 0.0115609217 0 0 0 0 0.467910214 0 0 0 0 1 0 0 0 1 0"/>
    </filter>
    <filter id="u" width="225%" height="225%" x="-62.5%" y="-62.5%" filterUnits="objectBoundingBox">
      <feGaussianBlur in="SourceGraphic" stdDeviation="10"/>
    </filter>
    <filter id="z" width="665.5%" height="258.3%" x="-282.7%" y="-70.8%" filterUnits="objectBoundingBox">
      <feOffset dy="1" in="SourceAlpha" result="shadowOffsetOuter1"/>
      <feGaussianBlur in="shadowOffsetOuter1" result="shadowBlurOuter1" stdDeviation="3"/>
      <feColorMatrix in="shadowBlurOuter1" values="0 0 0 0 0.0115609217 0 0 0 0 0.467910214 0 0 0 0 1 0 0 0 1 0"/>
    </filter>
    <filter id="K" width="164.3%" height="722.8%" x="-32.2%" y="-222.4%" filterUnits="objectBoundingBox">
      <feOffset dy="2" in="SourceAlpha" result="shadowOffsetOuter1"/>
      <feGaussianBlur in="shadowOffsetOuter1" result="shadowBlurOuter1" stdDeviation="2"/>
      <feColorMatrix in="shadowBlurOuter1" values="0 0 0 0 0.0115609217 0 0 0 0 0.467910214 0 0 0 0 1 0 0 0 1 0"/>
    </filter>
    <filter id="O" width="164.3%" height="722.8%" x="-32.2%" y="-222.4%" filterUnits="objectBoundingBox">
      <feOffset dy="2" in="SourceAlpha" result="shadowOffsetOuter1"/>
      <feGaussianBlur in="shadowOffsetOuter1" result="shadowBlurOuter1" stdDeviation="2"/>
      <feColorMatrix in="shadowBlurOuter1" values="0 0 0 0 0.0115609217 0 0 0 0 0.467910214 0 0 0 0 1 0 0 0 1 0"/>
    </filter>
    <filter id="W" width="100%" height="100%" x="0%" y="0%" filterUnits="objectBoundingBox">
      <feGaussianBlur in="SourceGraphic"/>
    </filter>
    <filter id="Z" width="152%" height="1122.9%" x="-26%" y="-457.6%" filterUnits="objectBoundingBox">
      <feOffset dy="1" in="SourceAlpha" result="shadowOffsetOuter1"/>
      <feGaussianBlur in="shadowOffsetOuter1" result="shadowBlurOuter1" stdDeviation="3"/>
      <feColorMatrix in="shadowBlurOuter1" values="0 0 0 0 0.0115609217 0 0 0 0 0.467910214 0 0 0 0 1 0 0 0 1 0"/>
    </filter>
    <filter id="ag" width="100%" height="100%" x="0%" y="0%" filterUnits="objectBoundingBox">
      <feGaussianBlur in="SourceGraphic"/>
    </filter>
    <filter id="aj" width="132.3%" height="240%" x="-16.2%" y="-70%" filterUnits="objectBoundingBox">
      <feGaussianBlur in="SourceGraphic" stdDeviation="1.4"/>
    </filter>
    <filter id="ak" width="144.4%" height="144.4%" x="-22.2%" y="-22.2%" filterUnits="objectBoundingBox">
      <feGaussianBlur in="SourceGraphic" stdDeviation="2"/>
    </filter>
    <filter id="al" width="180%" height="180%" x="-40%" y="-40%" filterUnits="objectBoundingBox">
      <feGaussianBlur in="SourceGraphic" stdDeviation="2"/>
    </filter>
    <radialGradient id="c" cx="52.436%" cy="42.955%" r="175.258%" fx="52.436%" fy="42.955%" gradientTransform="matrix(-.20606 0 0 -.21136 .632 .52)">
      <stop offset="0%" stop-color="#172743"/>
      <stop offset="100%" stop-opacity="0"/>
    </radialGradient>
    <radialGradient id="d" cx="52.436%" cy="42.955%" r="235.962%" fx="52.436%" fy="42.955%" gradientTransform="matrix(-.22222 0 0 -.21136 .64 .52)">
      <stop offset="0%" stop-color="#172743"/>
      <stop offset="100%" stop-opacity="0"/>
    </radialGradient>
    <radialGradient id="f" cx="52.436%" cy="42.955%" r="334.054%" fx="52.436%" fy="42.955%" gradientTransform="matrix(-.1081 0 0 -.21136 .581 .52)">
      <stop offset="0%" stop-color="#172743"/>
      <stop offset="100%" stop-opacity="0"/>
    </radialGradient>
    <radialGradient id="N" cx="0%" cy="100%" r="379.12%" fx="0%" fy="100%" gradientTransform="matrix(.08726 -.64586 .07382 .76346 -.074 .237)">
      <stop offset="0%" stop-color="#08C4FB" stop-opacity=".984"/>
      <stop offset="100%" stop-color="#637BFF" stop-opacity="0"/>
    </radialGradient>
    <radialGradient id="Q" cx="0%" cy="100%" r="334.32%" fx="0%" fy="100%" gradientTransform="scale(.14534 1) rotate(-47.088 0 1)">
      <stop offset="0%" stop-color="#08C4FB" stop-opacity=".984"/>
      <stop offset="100%" stop-color="#637BFF" stop-opacity="0"/>
    </radialGradient>
    <radialGradient id="V" cx="52.436%" cy="42.955%" r="36.114%" fx="52.436%" fy="42.955%" gradientTransform="matrix(-1 0 0 -.21136 1.049 .52)">
      <stop offset="0%" stop-color="#172743"/>
      <stop offset="100%" stop-opacity="0"/>
    </radialGradient>
    <radialGradient id="af" cx="52.436%" cy="42.955%" r="91.927%" fx="52.436%" fy="42.955%" gradientTransform="matrix(-.39286 0 0 -.21136 .73 .52)">
      <stop offset="0%" stop-color="#172743"/>
      <stop offset="100%" stop-opacity="0"/>
    </radialGradient>
    <radialGradient id="ai" cx="52.436%" cy="42.955%" r="156.494%" fx="52.436%" fy="42.955%" gradientTransform="matrix(-.23077 0 0 -.21136 .645 .52)">
      <stop offset="0%" stop-color="#172743"/>
      <stop offset="100%" stop-opacity="0"/>
    </radialGradient>
    <radialGradient id="am" r="68.353%" fx="50%" fy="50%">
      <stop offset="0%" stop-color="#21C8F6"/>
      <stop offset="100%" stop-color="#4BDEFF"/>
    </radialGradient>
    <path id="F" d="M4.586 0h24.287a4.586 4.586 0 014.587 4.586v19.479c0 1.89-1.16 3.587-2.92 4.273-2.894 1.128-7.305 1.692-13.235 1.692-6.288 0-11.077-.634-14.368-1.902A4.586 4.586 0 010 23.848V4.586A4.586 4.586 0 014.586 0z"/>
    <path id="G" d="M4.586 0h24.287a4.586 4.586 0 014.587 4.586v19.479c0 1.89-1.16 3.587-2.92 4.273-2.894 1.128-7.305 1.692-13.235 1.692-6.288 0-11.077-.634-14.368-1.902A4.586 4.586 0 010 23.848V4.586A4.586 4.586 0 014.586 0z"/>
    <path id="L" d="M17.471 13.45H36.99a1.124 1.124 0 010 2.248H17.47a1.124 1.124 0 110-2.248z"/>
    <path id="P" d="M17.766 19.884h19.518a1.124 1.124 0 110 2.248H17.766a1.124 1.124 0 010-2.248z"/>
    <path id="aa" d="M19.993 39.659h34.683a.929.929 0 010 1.857H19.993a.929.929 0 010-1.857z"/>
    <circle id="a" cx="60" cy="60" r="60"/>
    <circle id="w" cx="60" cy="60" r="60"/>
    <ellipse id="m" cx="35.143" cy="7.275" rx="2.465" ry="2.475"/>
    <rect id="A" width="3.36" height="12" x="36.911" y="31.16" rx="1.68"/>
  </defs>
  <g fill="none" fill-rule="evenodd" transform="translate(1 1)">
    <mask id="b" fill="#fff">
      <use xlink:href="#a"/>
    </mask>
    <use fill="#000" fill-opacity=".152" xlink:href="#a"/>
    <g mask="url(#b)">
      <g transform="translate(0 55)">
        <ellipse cx="71.083" cy="58.628" fill="url(#c)" opacity=".899" rx="44" ry="9.067" transform="rotate(-1 71.083 58.628)"/>
        <ellipse cx="16.083" cy="34.628" fill="url(#d)" filter="url(#e)" opacity=".664" rx="9" ry="2" transform="rotate(-1 16.083 34.628)"/>
        <ellipse cx="23.581" cy="26.497" fill="url(#f)" filter="url(#g)" opacity=".497" rx="18.5" ry="2" transform="rotate(-1 23.581 26.497)"/>
        <path fill="url(#h)" fill-rule="nonzero" d="M-1.315 17.032l19.717 1.67c.564-.125.965-.627.965-1.207V4.993c0-.684-.552-1.238-1.233-1.238H-1.582c-.68 0-1.232.554-1.232 1.238v10.83c0 .792.73 1.38 1.5 1.209z" transform="rotate(-90 19.505 0)"/>
        <path fill="#25395B" fill-rule="nonzero" d="M6.855 14.124c-.515 2.309 1.249 4.499 3.624 4.499h5.271v2.464c0 .681-.554 1.233-1.237 1.233l-9.315.371c-.791 0-1.688-.292-1.516-1.061-.934-3.163-1.49-5.493-1.672-6.99-.368-3.048-.77-7.56-1.207-13.536A1.236 1.236 0 012.01.139h7.966l-3.12 13.985z"/>
        <path stroke="url(#i)" stroke-width=".507" d="M-1.37 16.784l.077-.005 19.64 1.677c.447-.1.766-.5.766-.96V4.992a.981.981 0 00-.979-.984H-1.582c-.54 0-.979.44-.979.984v10.83a.98.98 0 001.191.961z" transform="rotate(-90 19.505 0)"/>
        <path stroke="#2E4469" stroke-width="1.2" d="M13.871 24.93c1.392 4.018.98 6.47-1.234 7.359-3.323 1.333-10.927 3.452-6.204 4.75 4.724 1.3-.354 7.75 21.495 3.226"/>
        <ellipse cx="34.951" cy="6.949" fill="url(#j)" fill-rule="nonzero" rx="4.929" ry="4.949" transform="rotate(118 34.951 6.95)"/>
        <ellipse cx="34.951" cy="6.949" stroke="url(#k)" stroke-width=".507" rx="4.676" ry="4.696" transform="rotate(118 34.951 6.95)"/>
        <g transform="rotate(118 35.143 7.275)">
          <use fill="#000" filter="url(#l)" xlink:href="#m"/>
          <use fill="url(#n)" xlink:href="#m"/>
        </g>
        <ellipse cx="35.143" cy="7.275" stroke="url(#o)" stroke-width=".507" rx="2.211" ry="2.221" transform="rotate(118 35.143 7.275)"/>
        <path fill="url(#p)" fill-rule="nonzero" d="M12.255 29.447H36.9v4.949H12.255z"/>
        <path stroke="url(#q)" stroke-width=".507" d="M30.486 29.7H18.67v.983c0 .823-.665 1.491-1.486 1.491H12.51v1.968h24.138v-1.968h-4.675a1.488 1.488 0 01-1.486-1.49v-.985z"/>
        <path fill="url(#r)" d="M5.64 11.926h39.433v14.848H5.64z"/>
        <path fill="#25395B" fill-rule="nonzero" d="M5.64 13.164h39.433v2.474H5.64z"/>
        <path fill="url(#s)" d="M28.348 12.021H2.634C1.45 12.021.49 10.913.49 9.547v-4.95c0-1.367.96-2.475 2.143-2.475h25.714c1.184 0 2.143 1.108 2.143 2.475v4.95c0 1.367-.96 2.474-2.143 2.474z"/>
        <path stroke="url(#t)" stroke-width=".507" d="M28.348 11.768c1.035 0 1.89-.987 1.89-2.221v-4.95c0-1.234-.855-2.221-1.89-2.221H2.634c-1.035 0-1.89.987-1.89 2.221v4.95c0 1.234.855 2.22 1.89 2.22h25.714z"/>
        <path fill="#25395B" fill-rule="nonzero" d="M25.984 7.724h-6.162a1.234 1.234 0 01-1.232-1.237c0-.683.551-1.237 1.232-1.237h6.162c.68 0 1.232.554 1.232 1.237 0 .684-.551 1.237-1.232 1.237zm-19.89 0H1.81c-.474 0-.858-.553-.858-1.237 0-.683.384-1.237.858-1.237h4.285c.474 0 .857.554.857 1.237 0 .684-.383 1.237-.857 1.237z"/>
        <circle cx="41.822" cy="31.899" r="24" fill="#0091FF" filter="url(#u)" opacity=".699"/>
      </g>
    </g>
    <use stroke="url(#v)" xlink:href="#w"/>
    <g transform="rotate(-8 274.694 -38.648)">
      <path stroke="url(#x)" stroke-width="2" d="M51.444 51.706L33.823 8.836 10 21.731" transform="scale(-1 1) rotate(44 0 -45.768)"/>
      <circle cx="13.51" cy="17.111" r="2.94" fill="url(#y)" transform="scale(-1 1) rotate(44 0 -16.328)"/>
      <path fill="#FFF" fill-opacity=".2" d="M11.569 14.899a2.794 2.794 0 00-.849 2.204l.015.156a2.8 2.8 0 015.543.097l.02-.156a2.8 2.8 0 00-4.73-2.301z"/>
    </g>
    <g transform="rotate(-11 63.361 -2.381)">
      <use fill="#000" filter="url(#z)" xlink:href="#A"/>
      <use fill="url(#B)" xlink:href="#A"/>
    </g>
    <g transform="rotate(-10 97.935 -201.601)">
      <path fill="url(#C)" d="M16.458 0h21.599c5.428 0 9.828 4.4 9.828 9.828v22.737c0 6.513-5.28 11.794-11.794 11.794H18.423c-6.513 0-11.793-5.28-11.793-11.794V9.828C6.63 4.4 11.03 0 16.458 0z"/>
      <ellipse cx="15.217" cy="3.795" fill="url(#D)" rx="1.299" ry="1.32"/>
      <path fill="#1B283E" d="M7.44 27.58c0 6.514 5.28 11.794 11.793 11.794h16.093c6.514 0 11.794-5.28 11.794-11.793v5.33c0 6.514-5.28 11.794-11.794 11.794H19.233c-6.513 0-11.794-5.28-11.794-11.794z" opacity=".499"/>
      <path stroke="url(#E)" stroke-width=".5" d="M48.377 14.281c.013.244.014.49.003.734l-.78 18.397c-.269 6.313-5.465 11.293-11.784 11.293H18.783c-6.335 0-11.538-5.005-11.785-11.335l-.663-17.04a7.827 7.827 0 011.104-4.336V27.58c0 6.513 5.28 11.793 11.794 11.793h16.093c6.514 0 11.794-5.28 11.794-11.793V10.399a7.826 7.826 0 011.257 3.882z"/>
      <g transform="translate(10.679 6.6)">
        <use fill="#1B283E" xlink:href="#F"/>
        <mask id="J" fill="#fff">
          <use xlink:href="#G"/>
        </mask>
        <path stroke="url(#H)" stroke-width=".7" d="M4.586.35A4.236 4.236 0 00.35 4.586v19.262a4.236 4.236 0 002.713 3.954c3.244 1.25 7.993 1.878 14.242 1.878 5.89 0 10.263-.559 13.107-1.668a4.236 4.236 0 002.698-3.947V4.586A4.236 4.236 0 0028.873.35H4.586z"/>
        <ellipse cx="9.42" cy="5.61" fill="url(#I)" mask="url(#J)" rx="18.514" ry="18.81"/>
      </g>
      <use fill="#000" filter="url(#K)" xlink:href="#L"/>
      <use fill="url(#M)" xlink:href="#L"/>
      <path fill="url(#N)" d="M17.766 16.76h17.418a1.124 1.124 0 110 2.248H17.766a1.124 1.124 0 010-2.248z"/>
      <use fill="#000" filter="url(#O)" xlink:href="#P"/>
      <use fill="url(#M)" xlink:href="#P"/>
      <path fill="url(#Q)" d="M17.766 23.008h13.218a1.124 1.124 0 110 2.248H17.766a1.124 1.124 0 010-2.248z"/>
      <path d="M31.675 4.686h-1.044a.523.523 0 01-.517-.528c0-.292.232-.528.517-.528h1.044c.286 0 .518.236.518.528a.523.523 0 01-.518.528zm1.949-1.452H32.58a.523.523 0 01-.517-.528c0-.292.232-.528.517-.528h1.044c.286 0 .518.236.518.528a.523.523 0 01-.518.528zm5.326 1.452h-5.717a.525.525 0 01-.52-.528c0-.292.233-.528.52-.528h5.715c.287 0 .52.236.52.528a.525.525 0 01-.52.528h.002zm1.926-1.452h-5.673a.535.535 0 01-.542-.528c0-.292.243-.528.542-.528h5.673c.299 0 .541.236.541.528a.535.535 0 01-.541.528z" fill="#243552"/>
      <path stroke="url(#R)" d="M16.458 0h21.644c5.428 0 9.828 4.4 9.828 9.828v22.478c0 6.514-5.28 11.794-11.794 11.794H18.423C11.91 44.1 6.63 38.82 6.63 32.306V9.828C6.63 4.4 11.03 0 16.458 0z"/>
      <g style="mix-blend-mode:luminosity">
        <g transform="rotate(-4 121.361 -.488)">
          <ellipse cx="13.079" cy="9.984" fill="url(#S)" opacity=".398" rx="9.592" ry="9.55"/>
          <ellipse cx="37.93" cy="9.984" fill="url(#S)" opacity=".398" rx="9.592" ry="9.55"/>
          <path fill="#1B283E" stroke="#1B283E" stroke-width=".679" d="M37.724 19.014c-4.902 0-8.875-3.946-8.875-8.813 0-4.867 3.973-8.813 8.875-8.813 4.901 0 8.875 3.946 8.875 8.813 0 4.867-3.974 8.813-8.875 8.813zm-24.782 0c-4.901 0-8.874-3.946-8.874-8.813 0-4.867 3.973-8.813 8.874-8.813 4.902 0 8.875 3.946 8.875 8.813 0 4.867-3.973 8.813-8.875 8.813zM47.103 4.795c-.74-.849-2.148-1.95-2.991-2.578a10.249 10.249 0 00-.67-.49l-.015-.011v.001A10.274 10.274 0 0037.725 0a10.277 10.277 0 00-7.277 3c-.9.836-1.676 1.751-2.479 2.647-1.017 1.136-1.618.579-2.635.579-1.017 0-1.618.557-2.635-.579-.802-.896-1.579-1.81-2.48-2.646A10.35 10.35 0 0012.912 0C10.8 0 8.714.633 7.176 1.717v-.001l.016.01c-.231.155-.438.319-.655.49-.843.63-2.287 1.73-3.028 2.58C2.407 6.056 0 6.141 0 6.141V8.75s1.44-.085 1.907.462c.275.323.572 1.877 1.056 3.503.148.58.358 1.137.601 1.672a6.98 6.98 0 00.795 1.43l.003-.004a10.283 10.283 0 008.579 4.589c4.162 0 7.745-2.46 9.359-5.994l.008-.01.024-.04c.737-1.243 1.48-4.646 1.815-5.188.339-.547 1.186-.589 1.186-.589s.847.042 1.186.59c.336.54 1.078 3.944 1.815 5.187l.024.04.008.01a10.276 10.276 0 009.358 5.994 10.28 10.28 0 008.577-4.589v.003c.303-.404.563-.897.79-1.428a10.07 10.07 0 00.59-1.673c.485-1.626.757-3.18 1.032-3.503.466-.547 1.86-.462 1.86-.462V6.142s-2.368-.085-3.47-1.347z"/>
        </g>
        <path fill="url(#T)" d="M12.615 1.457L5.349 15.301l5.762 3.643L18.454 3.4zm24.8 0L30.15 15.301l5.761 3.643L43.255 3.4z" opacity=".309" transform="rotate(-4 121.361 -.488)"/>
      </g>
    </g>
    <g transform="translate(35.165 53.132)">
      <path fill="#1B283E" d="M9.35 17.799l55.752-.973a6.11 6.11 0 016.157 6.966l-3.934 27.794a12.222 12.222 0 01-11.888 10.506l-34.848.609A12.222 12.222 0 018.342 52.615L3.44 24.976a6.11 6.11 0 015.91-7.177z"/>
      <path fill="url(#U)" d="M7.765 14.395h59.573a6.11 6.11 0 016.018 7.171l-4.56 25.876A12.222 12.222 0 0156.76 57.543H18.343a12.222 12.222 0 01-12.036-10.1l-4.56-25.877a6.11 6.11 0 016.018-7.171z" transform="rotate(-1 37.551 35.969)"/>
      <path fill="url(#U)" d="M7.765 14.395h59.573a6.11 6.11 0 016.018 7.171l-4.56 25.876A12.222 12.222 0 0156.76 57.543H18.343a12.222 12.222 0 01-12.036-10.1l-4.56-25.877a6.11 6.11 0 016.018-7.171z" transform="rotate(-1 37.551 35.969)"/>
      <g transform="translate(66.682 23.608)">
        <circle cx="5" cy="5" r="4" fill="url(#V)" filter="url(#W)" opacity=".899" transform="rotate(-81 5 5)"/>
        <path stroke="url(#X)" stroke-width="1.8" d="M4 3c-6.036.388-2.343 6.035-3.066 11.183-.641 4.563 2.382 7.403 6.022 7.362" transform="scale(-1 1) rotate(-8 12.451 88.654)"/>
        <g transform="scale(-1 1) rotate(82 -3.726 -1.677)">
          <rect width="2.857" height="3" x="1.071" y="1" fill="#1B283E" rx="1.429"/>
          <rect width="5" height="2" fill="url(#Y)" rx="1"/>
        </g>
      </g>
      <path fill="#1B283E" d="M19.92 36.562l34.678-.606a.929.929 0 01.032 1.858l-17.615.307-17.063.298a.929.929 0 01-.032-1.857z"/>
      <g transform="rotate(-1 37.335 40.587)">
        <use fill="#000" filter="url(#Z)" xlink:href="#aa"/>
        <use fill="url(#ab)" xlink:href="#aa"/>
      </g>
      <path fill="#1B283E" d="M20.525 43.353l34.678-.605a.929.929 0 01.032 1.857l-17.615.307-17.063.298a.929.929 0 11-.032-1.857zm.059 3.4l34.678-.606a.929.929 0 01.032 1.857l-17.614.308-17.063.298a.929.929 0 01-.033-1.857z"/>
      <path fill="url(#ac)" d="M17.721 14.876h40a6.11 6.11 0 015.826 7.955l-.594 1.878A12.222 12.222 0 0151.3 33.242H24.14a12.222 12.222 0 01-11.651-8.533l-.595-1.878a6.11 6.11 0 015.826-7.955z" transform="rotate(-1 37.72 24.059)"/>
      <path fill="url(#ad)" d="M8.058 14.878h59.063a6.11 6.11 0 015.606 8.543l-1.07 2.465a12.222 12.222 0 01-11.212 7.358H14.734c-4.87 0-9.275-2.89-11.213-7.358l-1.069-2.465a6.11 6.11 0 015.606-8.543z" transform="rotate(-1 37.589 24.061)"/>
      <path stroke="url(#ae)" stroke-width=".5" d="M8.058 14.878h59.063a6.11 6.11 0 015.606 8.543l-1.07 2.465a12.222 12.222 0 01-11.212 7.358H14.734c-4.87 0-9.275-2.89-11.213-7.358l-1.069-2.465a6.11 6.11 0 015.606-8.543z" transform="rotate(-1 37.589 24.061)"/>
      <path fill="#1B283E" d="M1.986 19.671a5.276 5.276 0 00.53 3.545l.59 1.095a12.222 12.222 0 0010.976 6.43l46.847-.818a12.222 12.222 0 0010.746-6.809l.55-1.115a5.298 5.298 0 00.407-3.56 6.124 6.124 0 01-.115 4.372l-1.026 2.484a12.222 12.222 0 01-11.082 7.552l-45.705.798a12.222 12.222 0 01-11.339-7.161l-1.112-2.446a6.088 6.088 0 01-.266-4.365z" opacity=".504"/>
      <path fill="#1B283E" d="M29.527 17.447l16.604-.29a6.11 6.11 0 014.045 1.438l2.758 2.325a2.214 2.214 0 01-1.388 3.906l-27.163.474a2.214 2.214 0 01-1.524-3.855l2.675-2.42a6.11 6.11 0 013.993-1.578z"/>
      <ellipse cx="46.681" cy="21.09" fill="url(#af)" filter="url(#ag)" opacity=".899" rx="14" ry="5.5" transform="rotate(-1 46.681 21.09)"/>
      <g transform="rotate(-1 82.704 -1348.307)">
        <path fill="url(#ah)" d="M9.147 1.673h10.319a4.753 4.753 0 014.753 4.753v11.599c0 1.5-1.216 2.716-2.716 2.716H7.11a2.716 2.716 0 01-2.716-2.716v-11.6a4.753 4.753 0 014.753-4.752z"/>
        <circle cx="13.937" cy="11.615" r="7" fill="#1B283E"/>
        <ellipse cx="13.336" cy="3.747" fill="url(#ai)" filter="url(#aj)" opacity=".65" rx="13" ry="3"/>
      </g>
    </g>
    <g transform="translate(59.347 52.24)">
      <circle cx="13.5" cy="13.5" r="13.5" fill="#92BAE9" filter="url(#ak)" opacity=".136" style="mix-blend-mode:overlay"/>
      <circle cx="13.5" cy="13.5" r="7.5" fill="#328AF1" filter="url(#al)" opacity=".842"/>
      <circle cx="13.66" cy="13.809" r="4" fill="url(#am)" transform="scale(1 -1) rotate(4 409.09 0)"/>
      <g fill="#FFF" style="mix-blend-mode:soft-light">
        <path d="M12.26 12.908l.636.635a.364.364 0 11-.514.514l-.636-.635a.364.364 0 01.515-.514zm1.408 1.407l1.388 1.388a.364.364 0 11-.514.514l-1.388-1.387a.364.364 0 01.514-.515z"/>
        <path d="M11.902 12.815l3.917-1.1a.347.347 0 01.43.248.365.365 0 01-.254.441l-3.918 1.101a.347.347 0 01-.43-.249.365.365 0 01.255-.441z"/>
        <path d="M14.46 15.888l1.101-3.917a.365.365 0 01.442-.255.347.347 0 01.248.43l-1.1 3.918a.365.365 0 01-.442.255.347.347 0 01-.249-.431zm-.078-1.801l-1.456 1.456a.353.353 0 11-.5-.5l1.456-1.456a.353.353 0 11.5.5zm-2.134 2.133l-.238.24a.353.353 0 11-.5-.5l.239-.24a.353.353 0 11.5.5z"/>
      </g>
      <path fill="#FFF" fill-opacity=".547" d="M10.551 14.145a3.328 3.328 0 001.605 2.513 3.333 3.333 0 014.153-5.13 3.333 3.333 0 00-5.758 2.616z" opacity=".58" style="mix-blend-mode:lighten"/>
    </g>
    <path stroke="url(#an)" stroke-width="1.8" d="M15 3c-6.036.388-6.98 7.424-9.1 10.6-3.39 5.08-8.995 3.495-3.655 8.647" transform="scale(-1 1) rotate(-45 19.941 150.26)"/>
    <g transform="scale(-1 1) rotate(45 -99.477 -82.796)">
      <rect width="2.857" height="3" x="1.071" y="1" fill="#1B283E" rx="1.429"/>
      <rect width="5" height="2" fill="url(#Y)" rx="1"/>
    </g>
  </g>
</svg>
