<svg xmlns="http://www.w3.org/2000/svg" xmlns:xlink="http://www.w3.org/1999/xlink" width="122" height="122">
  <defs>
    <circle id="a" cx="60" cy="60" r="60"/>
    <linearGradient id="b" x1="0%" y1="50%" y2="50%">
      <stop offset="0%" stop-color="#5B79A2"/>
      <stop offset="100%" stop-color="#2E4469"/>
    </linearGradient>
    <linearGradient id="c" x1="-61.839%" x2="60.343%" y1="0%" y2="134.844%">
      <stop offset="0%" stop-color="#76E1FF"/>
      <stop offset="100%" stop-color="#637BFF" stop-opacity="0"/>
    </linearGradient>
    <linearGradient id="d" x1="132.142%" x2="3.4%" y1="-34.684%" y2="93.842%">
      <stop offset="0%" stop-opacity="0"/>
      <stop offset="100%" stop-opacity=".372"/>
    </linearGradient>
    <filter id="e" width="118.6%" height="123.5%" x="-9.3%" y="-11.7%" filterUnits="objectBoundingBox">
      <feGaussianBlur in="SourceGraphic" stdDeviation=".9"/>
    </filter>
    <linearGradient id="f" x1="67.252%" x2="-34.666%" y1="22.034%" y2="197.643%">
      <stop offset="0%" stop-color="#76E1FF"/>
      <stop offset="100%" stop-color="#637BFF" stop-opacity="0"/>
    </linearGradient>
    <filter id="g" width="220%" height="220%" x="-60%" y="-60%" filterUnits="objectBoundingBox">
      <feGaussianBlur in="SourceGraphic" stdDeviation="2"/>
    </filter>
    <linearGradient id="h" x1="50%" x2="50%" y1="0%" y2="97.483%">
      <stop offset="0%" stop-color="#21C8F6"/>
      <stop offset="100%" stop-color="#637BFF"/>
    </linearGradient>
    <linearGradient id="i" x1="24.379%" x2="84.171%" y1="5.536%" y2="97.907%">
      <stop offset="0%" stop-color="#76E1FF"/>
      <stop offset="100%" stop-color="#637BFF" stop-opacity="0"/>
    </linearGradient>
    <circle id="j" cx="60" cy="60" r="60"/>
  </defs>
  <g fill="none" fill-rule="evenodd" transform="translate(1 1)">
    <use fill="#000" fill-opacity=".152" xlink:href="#a"/>
    <path fill="url(#b)" fill-rule="nonzero" d="M75.551 21.61H1.511A1.523 1.523 0 0 1 0 20.075V1.649C0 .8.677.113 1.511.113h74.04c.835 0 1.511.688 1.511 1.536v18.425c0 .848-.676 1.536-1.51 1.536z" transform="translate(21 23)"/>
    <path stroke="url(#c)" stroke-width=".7" d="M18.132 21.61H1.511A1.523 1.523 0 0 1 0 20.075V1.649C0 .8.677.113 1.511.113h16.621c.835 0 1.511.688 1.511 1.536v18.425c0 .848-.676 1.536-1.51 1.536z" transform="translate(21 23)"/>
    <path fill="#76E2FF" fill-rule="nonzero" d="M72.375 32.326H46.687a1.522 1.522 0 0 1-1.51-1.535c0-.85.675-1.536 1.51-1.536h25.688c.835 0 1.51.687 1.51 1.536 0 .848-.675 1.535-1.51 1.535zM90.507 38.468h-28.71a1.522 1.522 0 0 1-1.51-1.535c0-.85.676-1.536 1.51-1.536h28.71c.835 0 1.511.687 1.511 1.536 0 .848-.676 1.535-1.51 1.535zm-34.753 0h-9.067a1.522 1.522 0 0 1-1.51-1.535c0-.85.675-1.536 1.51-1.536h9.067c.835 0 1.51.687 1.51 1.536 0 .848-.675 1.535-1.51 1.535zM30.822 36.933a1.522 1.522 0 0 1-1.511-1.536c0-.849.675-1.535 1.51-1.535 1.25 0 2.267-1.033 2.267-2.303s-1.017-2.304-2.266-2.304c-1.25 0-2.267 1.034-2.267 2.304 0 .848-.676 1.535-1.51 1.535a1.522 1.522 0 0 1-1.512-1.535c0-2.964 2.373-5.375 5.289-5.375 2.916 0 5.288 2.412 5.288 5.375s-2.372 5.374-5.288 5.374zm.014 4.606a1.529 1.529 0 0 1-1.518-1.535c0-.85.668-1.536 1.504-1.536h.014c.836 0 1.511.687 1.511 1.536 0 .848-.675 1.535-1.51 1.535z"/>
    <path fill="url(#b)" fill-rule="nonzero" d="M75.551 49.248H1.511A1.523 1.523 0 0 1 0 47.713V29.287c0-.848.677-1.535 1.511-1.535h74.04c.835 0 1.511.687 1.511 1.535v18.426c0 .848-.676 1.535-1.51 1.535z" transform="translate(21 23)"/>
    <path stroke="url(#c)" stroke-width=".7" d="M18.132 49.248H1.511A1.523 1.523 0 0 1 0 47.713V29.287c0-.848.677-1.535 1.511-1.535h16.621c.835 0 1.511.687 1.511 1.535v18.426c0 .848-.676 1.535-1.51 1.535z" transform="translate(21 23)"/>
    <path fill="#76E2FF" fill-rule="nonzero" d="M72.375 59.965H46.687a1.522 1.522 0 0 1-1.51-1.536c0-.849.675-1.535 1.51-1.535h25.688c.835 0 1.51.686 1.51 1.535 0 .849-.675 1.536-1.51 1.536zm-16.621 6.142h-9.067a1.522 1.522 0 0 1-1.51-1.536c0-.849.675-1.535 1.51-1.535h9.067c.835 0 1.51.686 1.51 1.535 0 .849-.675 1.536-1.51 1.536zM30.822 64.571a1.522 1.522 0 0 1-1.511-1.535c0-.85.675-1.536 1.51-1.536 1.25 0 2.267-1.033 2.267-2.303s-1.017-2.303-2.266-2.303c-1.25 0-2.267 1.033-2.267 2.303 0 .849-.676 1.535-1.51 1.535a1.522 1.522 0 0 1-1.512-1.535c0-2.963 2.373-5.374 5.289-5.374 2.916 0 5.288 2.411 5.288 5.374 0 2.963-2.372 5.374-5.288 5.374zm.014 4.607a1.529 1.529 0 0 1-1.518-1.536c0-.849.668-1.535 1.504-1.535h.014c.836 0 1.511.686 1.511 1.535 0 .849-.675 1.536-1.51 1.536z"/>
    <path fill="url(#b)" fill-rule="nonzero" d="M75.551 76.887H1.511A1.523 1.523 0 0 1 0 75.35V56.926c0-.848.677-1.536 1.511-1.536h74.04c.835 0 1.511.688 1.511 1.536V75.35c0 .848-.676 1.536-1.51 1.536z" transform="translate(21 23)"/>
    <path stroke="url(#c)" stroke-width=".7" d="M18.132 76.887H1.511A1.523 1.523 0 0 1 0 75.35V56.926c0-.848.677-1.536 1.511-1.536h16.621c.835 0 1.511.688 1.511 1.536V75.35c0 .848-.676 1.536-1.51 1.536z" transform="translate(21 23)"/>
    <path fill="#76E2FF" fill-rule="nonzero" d="M72.375 87.603H46.687a1.522 1.522 0 0 1-1.51-1.535c0-.849.675-1.536 1.51-1.536h25.688c.835 0 1.51.687 1.51 1.536 0 .848-.675 1.535-1.51 1.535zm-16.621 6.142h-9.067a1.522 1.522 0 0 1-1.51-1.535c0-.85.675-1.536 1.51-1.536h9.067c.835 0 1.51.687 1.51 1.536 0 .848-.675 1.535-1.51 1.535zM30.822 92.21a1.522 1.522 0 0 1-1.511-1.536c0-.849.675-1.535 1.51-1.535 1.25 0 2.267-1.033 2.267-2.303s-1.017-2.304-2.266-2.304c-1.25 0-2.267 1.034-2.267 2.304 0 .848-.676 1.535-1.51 1.535a1.522 1.522 0 0 1-1.512-1.535c0-2.964 2.373-5.375 5.289-5.375 2.916 0 5.288 2.412 5.288 5.375s-2.372 5.374-5.288 5.374zm.014 4.606a1.529 1.529 0 0 1-1.518-1.535c0-.85.668-1.536 1.504-1.536h.014c.836 0 1.511.687 1.511 1.536 0 .848-.675 1.535-1.51 1.535zM87.485 66.107H61.798a1.523 1.523 0 0 1-1.511-1.536c0-.848.676-1.535 1.51-1.535h25.688c.835 0 1.511.687 1.511 1.535 0 .848-.676 1.536-1.511 1.536zm0 27.638H61.798a1.523 1.523 0 0 1-1.511-1.535c0-.848.676-1.536 1.51-1.536h25.688c.835 0 1.511.688 1.511 1.536 0 .848-.676 1.535-1.511 1.535z"/>
    <path fill="url(#d)" d="M37.687 50.406l12.895-.663-27.58 23-1.42-2.305z" filter="url(#e)" opacity=".5" transform="rotate(3 36.082 61.243)"/>
    <g transform="rotate(-116 44.393 43.73)">
      <path stroke="url(#f)" stroke-width="2" d="M.763 105.628l49.365-65.093L38.335 4.486l-28.36 15.35"/>
      <circle cx="10" cy="19" r="5" fill="#328AF1" filter="url(#g)"/>
      <g transform="rotate(111 14.629 37.807)">
        <circle cx="4" cy="4" r="4" fill="url(#h)"/>
        <path fill="#FFF" fill-opacity=".2" d="M1.524 6.857a3.81 3.81 0 1 1 5.334-5.334 3.81 3.81 0 0 0-5.334 5.334z"/>
      </g>
      <g transform="rotate(99 20.573 18.946)">
        <circle cx="3.5" cy="3.5" r="3.5" fill="url(#h)"/>
        <path fill="#FFF" fill-opacity=".2" d="M1.333 6A3.333 3.333 0 1 1 6 1.333 3.333 3.333 0 0 0 1.333 6z"/>
      </g>
      <g transform="rotate(90 -1.5 15)">
        <circle cx="2.5" cy="3" r="2.5" fill="url(#h)"/>
        <path fill="#FFF" fill-opacity=".2" d="M.952 4.786a2.38 2.38 0 1 1 3.333-3.333A2.38 2.38 0 0 0 .953 4.785z"/>
      </g>
    </g>
    <use stroke="url(#i)" xlink:href="#j"/>
  </g>
</svg>
