<svg xmlns="http://www.w3.org/2000/svg" xmlns:xlink="http://www.w3.org/1999/xlink" width="122" height="122"><defs><linearGradient id="b" x1="30.414%" x2="50%" y1="0%" y2="100%"><stop offset="0%" stop-color="#B9437C"/><stop offset="100%" stop-color="#1A2536"/></linearGradient><circle id="a" cx="60" cy="60" r="60"/><linearGradient id="c" x1="30.414%" x2="53.481%" y1="9.745%" y2="75.954%"><stop offset="0%" stop-color="#B9437C"/><stop offset="100%" stop-color="#1A2536"/></linearGradient><linearGradient id="d" x1="5.857%" x2="66.172%" y1="46.294%" y2="15.483%"><stop offset="0%" stop-color="#D45D96" stop-opacity="0"/><stop offset="49.972%" stop-color="#FED2E9"/><stop offset="100%" stop-color="#C42E6C" stop-opacity="0"/></linearGradient><filter id="f" width="196.8%" height="196.8%" x="-48.4%" y="-48.4%" filterUnits="objectBoundingBox"><feGaussianBlur in="SourceGraphic" stdDeviation="10"/></filter><radialGradient id="g" r="187.051%" fx="50%" fy="50%" gradientTransform="matrix(-.26087 0 0 -.61337 .63 .807)"><stop offset="0%"/><stop offset="100%" stop-opacity=".002"/></radialGradient><filter id="h" width="137.2%" height="242.5%" x="-18.6%" y="-71.2%" filterUnits="objectBoundingBox"><feGaussianBlur in="SourceGraphic" stdDeviation="2.85"/></filter><radialGradient id="i" cx="0%" cy="0%" r="170.02%" fx="0%" fy="0%" gradientTransform="matrix(.36833 .76444 -1.79495 .58471 0 0)"><stop offset="0%" stop-color="#FFF"/><stop offset="100%" stop-color="#C42E6C"/></radialGradient><radialGradient id="j" cx="52.101%" cy="30.594%" r="48.796%" fx="52.101%" fy="30.594%" gradientTransform="matrix(-1 0 0 -.22686 1.042 .375)"><stop offset="0%"/><stop offset="100%" stop-opacity=".002"/></radialGradient><filter id="k" width="153.4%" height="147.5%" x="-26.7%" y="-23.8%" filterUnits="objectBoundingBox"><feGaussianBlur in="SourceGraphic" stdDeviation="2.85"/></filter><radialGradient id="l" cx="52.101%" cy="30.594%" r="219.582%" fx="52.101%" fy="30.594%" gradientTransform="matrix(-.22222 0 0 -.25522 .637 .384)"><stop offset="0%"/><stop offset="100%" stop-opacity=".002"/></radialGradient><filter id="m" width="131.7%" height="242.5%" x="-15.8%" y="-71.2%" filterUnits="objectBoundingBox"><feGaussianBlur in="SourceGraphic" stdDeviation="2.85"/></filter><radialGradient id="n" cx="52.101%" cy="30.594%" r="211.449%" fx="52.101%" fy="30.594%" gradientTransform="matrix(-.23077 0 0 -.25522 .641 .384)"><stop offset="0%"/><stop offset="100%" stop-opacity=".002"/></radialGradient><filter id="o" width="132.9%" height="242.5%" x="-16.4%" y="-71.2%" filterUnits="objectBoundingBox"><feGaussianBlur in="SourceGraphic" stdDeviation="2.85"/></filter><linearGradient id="p" x1="94.668%" x2="22.848%" y1="94.914%" y2="7.02%"><stop offset="0%" stop-color="#F4487D"/><stop offset="100%" stop-color="#FF6E9C"/></linearGradient><circle id="q" cx="60" cy="60" r="60"/><linearGradient id="r" x1="0%" x2="86.405%" y1="28.388%" y2="50%"><stop offset="0%" stop-color="#6F90BC"/><stop offset="100%" stop-color="#2E4469"/></linearGradient><linearGradient id="s" x1="18.656%" x2="92.09%" y1="37.307%" y2="64.799%"><stop offset="0%" stop-color="#5F80AB"/><stop offset="100%" stop-color="#293F64"/></linearGradient><linearGradient id="t" x1="87.01%" x2="13.942%" y1="37.712%" y2="63.687%"><stop offset="0%" stop-color="#D691B0" stop-opacity=".663"/><stop offset="100%" stop-color="#293F64"/></linearGradient><linearGradient id="u" x1="25.935%" x2="79.434%" y1="52.048%" y2="53.721%"><stop offset="0%" stop-color="#779AC8"/><stop offset="100%" stop-color="#2E4469"/></linearGradient><linearGradient id="v" x1="0%" x2="86.405%" y1="28.388%" y2="50%"><stop offset="0%" stop-color="#6F90BC"/><stop offset="100%" stop-color="#2E4469"/></linearGradient><path id="w" d="M.362.28h39.211v43.914H.362z"/><linearGradient id="y" x1="50%" x2="76.226%" y1="35.456%" y2="59.901%"><stop offset="0%" stop-color="#5F80AB"/><stop offset="100%" stop-color="#293F64"/></linearGradient><linearGradient id="z" x1="50%" x2="62.639%" y1="35.456%" y2="59.726%"><stop offset="0%" stop-color="#D691B0"/><stop offset="100%" stop-color="#293F64"/></linearGradient><linearGradient id="A" x1="25.935%" x2="79.434%" y1="52.048%" y2="53.721%"><stop offset="0%" stop-color="#779AC8"/><stop offset="100%" stop-color="#2E4469"/></linearGradient><filter id="B" width="191.5%" height="145.6%" x="-46.4%" y="-23.6%" filterUnits="objectBoundingBox"><feGaussianBlur in="SourceGraphic" stdDeviation="1"/></filter><linearGradient id="C" x1="69.377%" x2="61.707%" y1="-7.637%" y2="100%"><stop offset="0%" stop-color="#172232"/><stop offset="100%" stop-color="#253652"/></linearGradient><linearGradient id="D" x1="50%" x2="50%" y1="149.484%" y2="0%"><stop offset="0%" stop-color="#5B79A2"/><stop offset="100%" stop-color="#2E4469"/></linearGradient><radialGradient id="E" cx="0%" cy="0%" r="161.17%" fx="0%" fy="0%" gradientTransform="matrix(.38855 .8064 -1.02297 1.14173 0 0)"><stop offset="0%" stop-color="#FFF"/><stop offset="100%" stop-color="#C42E6C"/></radialGradient><radialGradient id="H" r="103.466%" fx="50%" fy="50%" gradientTransform="matrix(0 .984 -1.93068 0 1.465 .008)"><stop offset="0%" stop-color="#FFF"/><stop offset="100%" stop-color="#C42E6C"/></radialGradient><path id="G" d="M78.052 38.282v-9.124l-3.363 1.936-4.646 2.675v9.124l8.01-4.611h-.001zm-9.61 16.505v-9.13l-4.57 2.61-13.05 7.448v9.216l17.62-10.144zm-36.84-31.068v31.068L49.22 64.93v-9.214l-9.204-5.209-.003-.002-.004-.002c-.031-.018-.057-.044-.086-.066-.025-.02-.054-.036-.076-.058l-.002-.003c-.026-.025-.044-.056-.066-.084-.02-.027-.044-.05-.06-.078l-.001-.003c-.018-.03-.029-.066-.042-.1-.013-.03-.03-.058-.038-.09v-.001c-.01-.038-.012-.078-.016-.117-.004-.03-.012-.06-.012-.09V28.33l-4.645-2.676-3.363-1.934v-.001zm8.81-5.994l-8.007 4.609 8.005 4.609 8.006-4.61-8.006-4.608h.002zm4.164 28.764l4.645-2.674V23.719l-3.363 1.936-4.646 2.675v20.096l3.364-1.937zm24.667-23.325l-8.006 4.609 8.006 4.609 8.005-4.61-8.005-4.608zm-.801 10.605l-4.646-2.675-3.363-1.936v9.124l4.645 2.674 3.364 1.937v-9.124zM50.02 54.33l11.743-6.704 5.87-3.35-8-4.606-9.211 5.303-8.395 4.833 7.993 4.524z"/><filter id="F" width="138.8%" height="138.1%" x="-19.4%" y="-19.1%" filterUnits="objectBoundingBox"><feOffset in="SourceAlpha" result="shadowOffsetOuter1"/><feGaussianBlur in="shadowOffsetOuter1" result="shadowBlurOuter1" stdDeviation="3"/><feColorMatrix in="shadowBlurOuter1" values="0 0 0 0 0.951002038 0 0 0 0 0.370524746 0 0 0 0 0.61045536 0 0 0 1 0"/></filter><linearGradient id="K" x1="74.312%" x2="19.487%" y1="66.164%" y2="40.449%"><stop offset="0%" stop-color="#F81A64"/><stop offset="100%" stop-color="#EC454F"/></linearGradient><ellipse id="J" cx="6.3" cy="4.55" rx="4.2" ry="3.15"/><filter id="I" width="183.3%" height="211.1%" x="-41.7%" y="-39.7%" filterUnits="objectBoundingBox"><feOffset dy="1" in="SourceAlpha" result="shadowOffsetOuter1"/><feGaussianBlur in="shadowOffsetOuter1" result="shadowBlurOuter1" stdDeviation="1"/><feColorMatrix in="shadowBlurOuter1" values="0 0 0 0 0.976760643 0 0 0 0 0.224703339 0 0 0 0 0.224703339 0 0 0 0.422803759 0"/></filter><filter id="L" width="183.3%" height="211.1%" x="-41.7%" y="-39.7%" filterUnits="objectBoundingBox"><feGaussianBlur in="SourceAlpha" result="shadowBlurInner1" stdDeviation="1"/><feOffset dy="1" in="shadowBlurInner1" result="shadowOffsetInner1"/><feComposite in="shadowOffsetInner1" in2="SourceAlpha" k2="-1" k3="1" operator="arithmetic" result="shadowInnerInner1"/><feColorMatrix in="shadowInnerInner1" values="0 0 0 0 0.958984375 0 0 0 0 0.749535463 0 0 0 0 0.833315028 0 0 0 1 0"/></filter><path id="M" d="M.18.14h19.607v21.957H.18z"/><linearGradient id="N" x1="10.134%" x2="79.026%" y1="0%" y2="50%"><stop offset="0%" stop-color="#6F90BC"/><stop offset="100%" stop-color="#2E4469"/></linearGradient><linearGradient id="P" x1="96.583%" x2="14.163%" y1="38.806%" y2="63.3%"><stop offset="0%" stop-color="#5F80AB"/><stop offset="100%" stop-color="#293F64"/></linearGradient><linearGradient id="Q" x1="100%" x2="30.272%" y1="46.102%" y2="50%"><stop offset="0%" stop-color="#D691B0"/><stop offset="100%" stop-color="#293F64"/></linearGradient><linearGradient id="R" x1="62.28%" x2="24.947%" y1="53.423%" y2="55.911%"><stop offset="0%" stop-color="#779AC8"/><stop offset="100%" stop-color="#2E4469"/></linearGradient><linearGradient id="S" x1="0%" y1="50%" y2="50%"><stop offset="0%" stop-color="#5B79A2"/><stop offset="100%" stop-color="#2E4469"/></linearGradient><linearGradient id="T" x1="50%" x2="50%" y1="0%" y2="100%"><stop offset="0%" stop-color="#5B79A2"/><stop offset="100%" stop-color="#2E4469"/></linearGradient><linearGradient id="U" x1="100%" x2="20.628%" y1="25.4%" y2="59.309%"><stop offset="0%" stop-color="#D691B0"/><stop offset="100%" stop-color="#293F64" stop-opacity="0"/></linearGradient><radialGradient id="V" cx="100%" cy="134.51%" r="167.6%" fx="100%" fy="134.51%" gradientTransform="matrix(-.37364 -.77547 .88602 -1.219 .182 3.76)"><stop offset="0%" stop-color="#32C5FF"/><stop offset="100%" stop-color="#C42E6C"/></radialGradient><linearGradient id="W" x1="0%" y1="50%" y2="50%"><stop offset="0%" stop-color="#5B79A2"/><stop offset="100%" stop-color="#2E4469"/></linearGradient><linearGradient id="X" x1="50%" x2="50%" y1="0%" y2="100%"><stop offset="0%" stop-color="#5B79A2"/><stop offset="100%" stop-color="#2E4469"/></linearGradient><linearGradient id="Y" x1="100%" x2="20.628%" y1="25.4%" y2="59.309%"><stop offset="0%" stop-color="#D691B0"/><stop offset="100%" stop-color="#293F64" stop-opacity="0"/></linearGradient><radialGradient id="Z" cx="79.008%" cy="0%" r="169.332%" fx="79.008%" fy="0%" gradientTransform="matrix(-.36982 -.76754 .85496 -1.23757 1.082 .606)"><stop offset="0%" stop-color="#32C5FF"/><stop offset="100%" stop-color="#C42E6C"/></radialGradient><linearGradient id="aa" x1="59.988%" x2="50%" y1="96.601%" y2="50.445%"><stop offset="0%" stop-opacity="0"/><stop offset="100%" stop-opacity=".372"/></linearGradient><filter id="ab" width="141.6%" height="116.3%" x="-20.8%" y="-8.2%" filterUnits="objectBoundingBox"><feGaussianBlur in="SourceGraphic" stdDeviation=".9"/></filter><linearGradient id="ac" x1="36.433%" x2="11.386%" y1="72.522%" y2="33.443%"><stop offset="0%" stop-color="#F4487D" stop-opacity=".16"/><stop offset="100%" stop-color="#FC3A78"/></linearGradient><linearGradient id="ad" x1="36.611%" x2="11.892%" y1="111.565%" y2="4.742%"><stop offset="0%" stop-color="#F4487D" stop-opacity=".16"/><stop offset="100%" stop-color="#FC3A78"/></linearGradient><linearGradient id="ae" x1="48.249%" x2="45.016%" y1="111.565%" y2="4.742%"><stop offset="0%" stop-color="#F4487D" stop-opacity=".16"/><stop offset="100%" stop-color="#FC3A78"/></linearGradient><radialGradient id="af" cy="0%" r="118.056%" fx="50%" fy="0%"><stop offset="0%" stop-color="#F44881"/><stop offset="100%" stop-color="#9E272E"/></radialGradient><linearGradient id="ag" x1="74.488%" x2="0%" y1="89.582%" y2="0%"><stop offset="0%" stop-color="#FB3B78"/><stop offset="100%" stop-color="#EFC7D8"/></linearGradient><radialGradient id="ah" cx="0%" cy="32.876%" r="133.796%" fx="0%" fy="32.876%"><stop offset="0%" stop-color="#F44881"/><stop offset="100%" stop-color="#9E272E"/></radialGradient></defs><g fill="none" fill-rule="evenodd"><g transform="translate(1 1)"><mask id="e" fill="#fff"><use xlink:href="#a"/></mask><use fill="url(#b)" xlink:href="#a"/><path fill="url(#c)" stroke="url(#d)" stroke-width="1.5" d="M.093 60.858c-.002.057-.032.49-.044.724-.24 4.604.359 10.097 2.548 15.844.317.832.61 1.644 1.053 2.902 2.286 6.495 3.31 8.915 5.636 12.513 3.152 4.874 7.68 9.433 14.341 14.084 3.13 2.186 8.493 5.637 16.083 10.35l20.33 2.824c14.343-.113 25.63-2.744 33.87-7.872 8.244-5.131 19.338-16.48 33.239-34.03l-9.135-44.584-16.06-27.241c-33.98 18.032-59.49 31.643-76.532 40.831-8.572 4.622-15 8.125-19.284 10.508a233.95 233.95 0 0 0-4.806 2.73c-.502.295-.882.528-1.138.695.11-.069-.097.057-.1-.273z" mask="url(#e)" opacity=".905" transform="rotate(-1 63.605 63.111)"/><circle cx="54" cy="45" r="31" fill="#CA437B" filter="url(#f)" mask="url(#e)" opacity=".617" style="mix-blend-mode:overlay"/><ellipse cx="27" cy="76" fill="url(#g)" filter="url(#h)" mask="url(#e)" opacity=".85" rx="23" ry="6"/><path stroke="url(#i)" d="M44.437 60L26.15 70.5l18.5 12" mask="url(#e)"/><ellipse cx="85" cy="68.5" fill="url(#j)" filter="url(#k)" opacity=".85" rx="16" ry="18" transform="rotate(17 85 68.5)"/><ellipse cx="79" cy="99" fill="url(#l)" filter="url(#m)" opacity=".85" rx="27" ry="6" transform="rotate(-24 79 99)"/><ellipse cx="46" cy="104" fill="url(#n)" filter="url(#o)" opacity=".85" rx="26" ry="6" transform="rotate(17 46 104)"/><use stroke="url(#p)" stroke-width="2" xlink:href="#q"/></g><path fill="url(#r)" d="M15.238 23.669l17.67-10.222c.349-.202.513-.472.519-.755l.01.007-.003-4.648-.984.824-11.154-6.427c-.906-.524-2.28-.58-3.064-.125l-16.888 9.77-1.31-.755v4.667L.042 16c.01.343.255.701.743.983l11.389 6.562c.907.523 2.28.578 3.064.125" transform="translate(12 60)"/><path fill="#1B283E" d="M44.45 68.875l-11.153-6.428c-.908-.522-2.28-.578-3.065-.124l-4.401 2.546v19.103c.526.01 1.033-.087 1.408-.303l17.668-10.221c.35-.203.514-.473.52-.755l.01.006-.003-4.649-.983.825"/><path fill="url(#s)" d="M.563 10.528L18.233.308c.784-.455 2.156-.4 3.063.124l11.39 6.562c.906.524 1.006 1.315.221 1.77l-17.67 10.22c-.784.455-2.156.4-3.064-.124L.784 12.298c-.907-.524-1.006-1.315-.221-1.77" transform="translate(12 60)"/><path fill="url(#t)" d="M.563 10.528L18.233.308c.784-.455 2.156-.4 3.063.124l11.39 6.562c.906.524 1.006 1.315.221 1.77l-17.67 10.22c-.784.455-2.156.4-3.064-.124L.784 12.298c-.907-.524-1.006-1.315-.221-1.77" transform="translate(12 60)"/><path fill="url(#u)" d="M15.197 19.46l17.67-10.22c.43-.25.585-.6.496-.951-.08.176-.225.34-.456.474l-17.67 10.222c-.784.454-2.156.398-3.063-.125L.784 12.297c-.41-.236-.645-.528-.718-.818-.191.424.037.925.678 1.295l11.388 6.562c.908.523 2.28.58 3.065.125" transform="translate(12 60)"/><path fill="url(#v)" d="M30.477 47.337l35.338-20.442c.699-.404 1.028-.945 1.038-1.51l.02.014-.005-9.298S65.63 17.14 64.9 17.749L42.593 4.895c-1.814-1.046-4.56-1.158-6.13-.25L2.688 24.185.07 22.675.068 32.01.084 32c.018.685.51 1.401 1.486 1.964l22.777 13.125c1.815 1.046 4.56 1.157 6.13.25" transform="translate(31 62)"/><g transform="translate(58.3 65.752)"><mask id="x" fill="#fff"><use xlink:href="#w"/></mask><path fill="#1B283E" d="M37.601 13.997L15.293 1.143C13.48.098 10.734-.014 9.163.893l-8.8 5.092v38.207c1.053.02 2.067-.174 2.815-.607l35.337-20.44c.7-.406 1.028-.946 1.04-1.511l.02.013-.006-9.298s-1.237 1.039-1.967 1.648" mask="url(#x)"/></g><path fill="url(#y)" d="M1.125 21.057L36.465.614c1.57-.907 4.313-.797 6.128.25L65.37 13.989c1.814 1.046 2.014 2.63.443 3.538L30.475 37.968c-1.569.91-4.313.799-6.13-.248L1.569 24.595c-1.814-1.046-2.012-2.63-.443-3.538" transform="translate(31 62)"/><path fill="url(#z)" d="M1.125 21.057L36.465.614c1.57-.907 4.313-.797 6.128.25L65.37 13.989c1.814 1.046 2.014 2.63.443 3.538L30.475 37.968c-1.569.91-4.313.799-6.13-.248L1.569 24.595c-1.814-1.046-2.012-2.63-.443-3.538" opacity=".705" transform="translate(31 62)"/><path fill="url(#A)" d="M30.394 38.922l35.338-20.443c.86-.498 1.171-1.198.995-1.902-.16.353-.45.683-.913.95L30.474 37.97c-1.568.907-4.313.796-6.126-.25L1.568 24.594C.748 24.122.278 23.54.132 22.96c-.383.848.074 1.85 1.355 2.588l22.778 13.125c1.815 1.047 4.559 1.158 6.13.25" transform="translate(31 62)"/><path stroke="#000" stroke-opacity=".669" stroke-width="1.134" d="M7.406 5.929c-4.628-1.881-9.574 5.874-4.812 7.163 4.762 1.288 3.896 4.887 5.759 7.641" filter="url(#B)" transform="rotate(-53 88.154 32.078)"/><path stroke="url(#C)" stroke-width="1.134" d="M6.765 3.68c-4.629-1.881-8.773 8.003-4.011 9.291 4.762 1.29 4.534 4.407 6.397 7.16" transform="rotate(-53 88.154 32.078)"/><g transform="rotate(34 -113.774 63.676)"><rect width="2.7" height="2.835" x="2.013" y="2.945" fill="#1B283E" rx="1.35"/><rect width="6" height="1.89" x=".558" y="1.186" fill="#1B283E" rx=".945" transform="rotate(-4 3.558 2.13)"/><rect width="4.725" height="1.89" x="1" y="2" fill="url(#D)" rx=".945" transform="rotate(-4 3.362 2.945)"/></g><path stroke="url(#E)" d="M67.633 49.426l12.546 6.976a1 1 0 0 1-.013 1.755l-2.773 1.487a1 1 0 0 0-.02 1.75l6.586 3.74a1 1 0 0 0 1.043-.034L92 60.5" transform="translate(1 1)"/><g transform="translate(1 1)"><use fill="#000" filter="url(#F)" xlink:href="#G"/><use fill="url(#H)" xlink:href="#G"/></g><g transform="translate(49 82)"><ellipse cx="6.3" cy="4.55" fill="#1B283E" rx="6.3" ry="4.55"/><use fill="#000" filter="url(#I)" xlink:href="#J"/><use fill="url(#K)" xlink:href="#J"/><use fill="#000" filter="url(#L)" xlink:href="#J"/></g><path fill="#1B283E" d="M94.762 62.669l-17.67-10.222c-.349-.202-.513-.472-.519-.755l-.01.007.003-4.648.984.824 11.154-6.427c.906-.524 2.28-.58 3.064-.125l16.888 9.77 1.31-.755v4.667l-.008-.006c-.01.343-.255.701-.743.983l-11.389 6.562c-.907.523-2.28.578-3.064.125"/><g transform="matrix(-1 0 0 1 96.35 40.876)"><mask id="O" fill="#fff"><use xlink:href="#M"/></mask><path fill="url(#N)" d="M18.8 6.999L7.648.57C6.739.05 5.367-.007 4.582.447L.18 2.993v19.103c.526.01 1.033-.087 1.408-.303l17.668-10.22c.35-.204.514-.473.52-.756l.01.006-.003-4.649-.983.825" mask="url(#O)"/></g><path fill="url(#P)" d="M.563 10.528L18.233.308c.784-.455 2.156-.4 3.063.124l11.39 6.562c.906.524 1.006 1.315.221 1.77l-17.67 10.22c-.784.455-2.156.4-3.064-.124L.784 12.298c-.907-.524-1.006-1.315-.221-1.77" transform="matrix(-1 0 0 1 110 39)"/><path fill="url(#Q)" d="M.563 10.528L18.233.308c.784-.455 2.156-.4 3.063.124l11.39 6.562c.906.524 1.006 1.315.221 1.77l-17.67 10.22c-.784.455-2.156.4-3.064-.124L.784 12.298c-.907-.524-1.006-1.315-.221-1.77" transform="matrix(-1 0 0 1 110 39)"/><path fill="url(#R)" d="M15.197 19.46l17.67-10.22c.43-.25.585-.6.496-.951-.08.176-.225.34-.456.474l-17.67 10.222c-.784.454-2.156.398-3.063-.125L.784 12.297c-.41-.236-.645-.528-.718-.818-.191.424.037.925.678 1.295l11.388 6.562c.908.523 2.28.58 3.065.125" transform="matrix(-1 0 0 1 110 39)"/><g><path fill="url(#S)" d="M.53 10.528L18.198.308c.785-.455 2.157-.4 3.064.124l11.39 6.562c.906.524 1.006 1.315.221 1.77l-17.67 10.22c-.784.455-2.156.4-3.064-.124L.75 12.298c-.907-.524-1.006-1.315-.222-1.77" opacity=".4" transform="matrix(-1 0 0 1 89.403 66)"/><path fill="url(#T)" d="M19.009 2.162c.564-.329 1.55-.289 2.201.091l8.184 4.762c.651.38.723.955.159 1.284l-14.915 8.589c-.564.33-1.55.29-2.202-.09l-8.183-4.763c-.652-.38-.723-.954-.16-1.284L19.01 2.162z" transform="matrix(-1 0 0 1 89.647 66)"/><path fill="url(#T)" d="M19.009 2.162c.564-.329 1.55-.289 2.201.091l8.184 4.762c.651.38.723.955.159 1.284l-14.915 8.589c-.564.33-1.55.29-2.202-.09l-8.183-4.763c-.652-.38-.723-.954-.16-1.284L19.01 2.162z" transform="matrix(-1 0 0 1 89.647 66)"/><path fill="#1B283E" d="M88.874 76.528l-17.67-10.22c-.785-.455-2.156-.4-3.064.124l-11.389 6.562c-.907.524-1.007 1.315-.222 1.77l17.67 10.22c.785.455 2.157.4 3.065-.124l11.388-6.562c.908-.524 1.007-1.315.222-1.77"/><path fill="url(#U)" d="M19.009 2.162c.564-.329 1.55-.289 2.201.091l8.184 4.762c.651.38.723.955.159 1.284l-14.915 8.589c-.564.33-1.55.29-2.202-.09l-8.183-4.763c-.652-.38-.723-.954-.16-1.284L19.01 2.162z" transform="matrix(-1 0 0 1 89.647 66)"/><path stroke="url(#V)" stroke-width=".5" d="M7.154 8.787l3.572-2.117 3.793 2.117-2.555 1.705 6.642 3.86 5.583-3.315-9.67-5.506 1.945-1.26 5.584 3.218-4.99 3.003 6.188 3.86" transform="translate(56 66)"/></g><g><path fill="url(#W)" d="M.318 6.317L10.919.184c.471-.272 1.294-.239 1.839.075l6.833 3.938c.544.314.605.789.133 1.061L9.123 11.39c-.471.273-1.294.24-1.84-.074L.452 7.379c-.545-.314-.604-.79-.133-1.062" opacity=".4" transform="matrix(-1 0 0 1 104.042 42.237)"/><path fill="url(#X)" d="M11.405 1.297c.339-.197.93-.173 1.321.055l4.91 2.857c.391.228.434.573.096.77l-8.95 5.154c-.338.198-.93.173-1.32-.054L2.551 7.22c-.391-.228-.434-.572-.096-.77l8.95-5.154z" transform="matrix(-1 0 0 1 104.188 42.237)"/><path fill="url(#X)" d="M11.405 1.297c.339-.197.93-.173 1.321.055l4.91 2.857c.391.228.434.573.096.77l-8.95 5.154c-.338.198-.93.173-1.32-.054L2.551 7.22c-.391-.228-.434-.572-.096-.77l8.95-5.154z" transform="matrix(-1 0 0 1 104.188 42.237)"/><path fill="#1B283E" d="M103.724 48.554L93.123 42.42c-.471-.272-1.294-.239-1.839.075l-6.833 3.937c-.544.314-.604.79-.133 1.062l10.601 6.132c.471.273 1.294.24 1.84-.074l6.832-3.938c.545-.314.604-.789.133-1.061"/><path fill="url(#Y)" d="M11.405 1.297c.339-.197.93-.173 1.321.055l4.91 2.857c.391.228.434.573.096.77l-8.95 5.154c-.338.198-.93.173-1.32-.054L2.551 7.22c-.391-.228-.434-.572-.096-.77l8.95-5.154z" transform="matrix(-1 0 0 1 104.188 42.237)"/><path stroke="url(#Z)" stroke-width=".5" d="M5.65 6.956l4.719-2.954 2.276 1.27-1.533 1.023 2.627 1.361 3.35-1.99-4.371-2.572 1.31-.654 2.71 1.562-7.555 5.037" transform="matrix(-1 0 0 1 106.739 42.237)"/></g><path fill="url(#aa)" d="M33.45 65.898l-1.827 13.81L20.478 47.57l1.526-.94z" filter="url(#ab)" opacity=".365" transform="rotate(-96 27.914 63.219)"/><g><g stroke-linejoin="round" stroke-width="1.8"><path stroke="url(#ac)" d="M26.613.628L0 16.724" transform="translate(10 49.798)"/><path stroke="url(#ad)" d="M0 17.174l39.637 39.9" transform="translate(10 49.798)"/><path stroke="url(#ae)" d="M34.886 69.8l4.751-13.226" transform="translate(10 49.798)"/></g><g transform="scale(-1 1) rotate(-8 720.135 426.317)"><circle cx="2.5" cy="2.5" r="2.5" fill="url(#af)"/><path fill="#FFF" fill-opacity=".2" d="M2.38 0c.781 0 1.474.375 1.908.956A2.38 2.38 0 0 0 .955 4.29 2.382 2.382 0 0 1 2.381 0z"/></g><g transform="scale(-1 1) rotate(-8 326.216 305.363)"><circle cx="2.5" cy="2.5" r="2.5" fill="url(#ag)"/><path fill="#FFF" fill-opacity=".2" d="M2 0c.594 0 1.127.259 1.494.67l.103.126L3.45.697a2 2 0 0 0-2.652 2.9A2 2 0 0 1 2 0z"/></g><g transform="scale(-1 1) rotate(-8 454.121 135.605)"><circle cx="3.08" cy="3.08" r="3.08" fill="url(#ah)"/><path fill="#FFF" fill-opacity=".2" d="M2.933 0c.96 0 1.813.461 2.348 1.174a2.933 2.933 0 0 0-4.11 4.103A2.933 2.933 0 0 1 2.933 0z"/></g></g></g></svg>