<svg width="64" height="56" viewBox="15 31 42 2" fill="none" xmlns="http://www.w3.org/2000/svg">
<path fill-rule="evenodd" clip-rule="evenodd" d="M43.7891 21.8333C43.4847 21.0982 42.9006 20.5142 42.1656 20.2097L33.1479 16.4745C32.4129 16.17 31.5869 16.17 30.8518 16.4745L21.8342 20.2097C21.0992 20.5142 20.5151 21.0982 20.2106 21.8333L16.4754 30.8509C16.171 31.586 16.1709 32.4119 16.4754 33.147L20.2106 42.1646C20.5151 42.8997 21.0992 43.4837 21.8342 43.7882L30.8518 47.5234C31.5869 47.8279 32.4129 47.8279 33.1479 47.5234L42.1656 43.7882C42.9006 43.4837 43.4847 42.8997 43.7891 42.1646L47.5244 33.147C47.8288 32.4119 47.8288 31.586 47.5244 30.8509L43.7891 21.8333ZM24.2057 34.7669C24.2057 35.8387 24.7775 36.829 25.7057 37.3649L30.4999 40.1329C31.4281 40.6688 32.5717 40.6688 33.4999 40.1329L38.2941 37.3649C39.2223 36.829 39.7941 35.8387 39.7941 34.7669V29.231C39.7941 28.1592 39.2223 27.1688 38.2941 26.6329L33.4999 23.8649C32.5717 23.329 31.4281 23.329 30.4999 23.8649L25.7057 26.6329C24.7775 27.1688 24.2057 28.1592 24.2057 29.231L24.2057 34.7669Z" fill="url(#paint0_linear)"/>
<defs>
<linearGradient id="paint0_linear" x1="31.9999" y1="16.2461" x2="31.9999" y2="47.7517" gradientUnits="userSpaceOnUse">
<stop stop-color="#5CC878"/>
<stop offset="1" stop-color="#6C5BF6"/>
</linearGradient>
</defs>
</svg>
