<svg xmlns="http://www.w3.org/2000/svg" xmlns:xlink="http://www.w3.org/1999/xlink" width="122" height="122"><defs><circle id="a" cx="60" cy="60" r="60"/><linearGradient id="c" x1="0%" x2="61.066%" y1="50%" y2="-16.268%"><stop offset="0%" stop-color="#5B79A2"/><stop offset="100%" stop-color="#2E4469"/></linearGradient><linearGradient id="d" x1="67.252%" x2="15.826%" y1="22.034%" y2="163.626%"><stop offset="0%" stop-color="#76E1FF"/><stop offset="100%" stop-color="#637BFF" stop-opacity="0"/></linearGradient><linearGradient id="e" x1="0%" x2="23.104%" y1="-28.875%" y2="100%"><stop offset="0%" stop-color="#76E1FF"/><stop offset="100%" stop-color="#637BFF" stop-opacity="0"/></linearGradient><linearGradient id="f" x1="0%" y1="50%" y2="50%"><stop offset="0%" stop-color="#5B79A2"/><stop offset="100%" stop-color="#2E4469"/></linearGradient><linearGradient id="g" x1="51.53%" x2="15.735%" y1="-164.307%" y2="83.311%"><stop offset="0%" stop-color="#5B79A2"/><stop offset="100%" stop-color="#2E4469"/></linearGradient><filter id="h" width="220%" height="220%" x="-60%" y="-60%" filterUnits="objectBoundingBox"><feGaussianBlur in="SourceGraphic" stdDeviation="2"/></filter><linearGradient id="i" x1="50%" x2="50%" y1="0%" y2="97.483%"><stop offset="0%" stop-color="#21C8F6"/><stop offset="100%" stop-color="#637BFF"/></linearGradient><linearGradient id="j" x1="24.379%" x2="84.171%" y1="5.536%" y2="97.907%"><stop offset="0%" stop-color="#76E1FF"/><stop offset="100%" stop-color="#637BFF" stop-opacity="0"/></linearGradient><circle id="k" cx="60" cy="60" r="60"/></defs><g fill="none" fill-rule="evenodd" transform="translate(1 1)"><mask id="b" fill="#fff"><use xlink:href="#a"/></mask><use fill="#000" fill-opacity=".152" xlink:href="#a"/><g mask="url(#b)"><path fill="url(#c)" d="M5.985 52h67.03V16.93H5.985z" transform="translate(20 79)"/><path stroke="url(#d)" stroke-linejoin="round" d="M37.042 73.015V22.814H27.6v-7.057h-7.466v-4.533h-6.535V0m51.102 47.71V23.212l-2.982-.055v-7.401h-3.806v-4.533H46.599" opacity=".5" transform="translate(20 79)"/><path stroke="url(#d)" stroke-linejoin="round" d="M42.599 12.269v22.502H29.005v-8.996H14v14.813h9.619v10.018h11.385V30.417H58.2V51.32H44.965v-7.202H29.561v23.577" opacity=".5" transform="translate(20 79)"/><path stroke="url(#e)" stroke-width="1.2" d="M5.985 52h67.03V16.93H5.985z" transform="translate(20 79)"/><path fill="url(#f)" d="M0 18.14h79V0H0z" transform="translate(20 79)"/><path stroke="url(#e)" stroke-width="1.2" d="M0 18.14h79V0H0z" transform="translate(20 79)"/></g><g mask="url(#b)"><path fill="#74DFFE" d="M31 67.332h4.123v-4.12H31z"/><path fill="#74DFFE" d="M31 63.23h4.123v-4.122H31z"/><path fill="#74DFFE" d="M31 59.13h4.123v-4.121H31z"/><path fill="#2E4469" d="M31 55.027h4.123v-4.12H31zm4.137 24.607h4.123V75.51h-4.123zm4.137 0h4.123V75.51h-4.123zm4.136 0h4.123V75.51H43.41zm4.134 0h4.124V75.51h-4.124zm20.682 0h4.123V75.51h-4.123zm4.137 0h4.123V75.51h-4.123zm4.137 0h4.122V75.51H76.5zm4.136 0h4.123V75.51h-4.123z"/><path fill="#2E4469" d="M39.274 75.533h4.123v-4.122h-4.123zm4.136 0h4.123v-4.122H43.41zm4.134 0h4.124v-4.122h-4.124zm20.683 0h4.124v-4.122h-4.124zm4.136 0h4.123v-4.122h-4.123zm4.137 0h4.122v-4.122H76.5z"/><path fill="url(#g)" d="M12.41 57.431h4.123v-4.12H12.41zm4.134 0h4.124v-4.12h-4.124zm4.138 0h4.122v-4.12h-4.122zm12.408 0h4.124v-4.12H33.09zm4.137 0h4.124v-4.12h-4.124zm4.136 0h4.123v-4.12h-4.123z" opacity=".6" transform="translate(31 14)"/><path fill="#74DFFE" d="M35.137 67.33h4.123v-4.122h-4.123zm4.137 0h4.123v-4.122h-4.123z"/><path fill="url(#g)" d="M12.41 53.33h4.123v-4.122H12.41zm4.134 0h4.124v-4.122h-4.124zm4.138 0h4.122v-4.122h-4.122zm4.135 0h4.125v-4.122h-4.125zm4.139 0h4.121v-4.122h-4.121zm4.134 0h4.124v-4.122H33.09zm4.137 0h4.124v-4.122h-4.124zm4.136 0h4.123v-4.122h-4.123z" opacity=".6" transform="translate(31 14)"/><path fill="#74DFFE" d="M76.5 67.33h4.122v-4.122H76.5zm4.136 0h4.123v-4.122h-4.123zm4.137.002h4.123v-4.12h-4.123zM35.137 63.23h4.123v-4.122h-4.123zm4.137 0h4.123v-4.122h-4.123zm4.136 0h4.123v-4.122H43.41z"/><path fill="url(#g)" d="M16.544 49.23h4.124v-4.122h-4.124zm4.138 0h4.122v-4.122h-4.122zm4.135 0h4.125v-4.122h-4.125zm4.139 0h4.121v-4.122h-4.121zm4.134 0h4.124v-4.122H33.09zm4.137 0h4.124v-4.122h-4.124z" opacity=".6" transform="translate(31 14)"/><path fill="#74DFFE" d="M72.363 63.23h4.123v-4.122h-4.123zm4.137 0h4.122v-4.122H76.5zm4.136 0h4.123v-4.122h-4.123zm4.137 0h4.123v-4.122h-4.123zm-49.636-4.1h4.123v-4.123h-4.123zm4.137 0h4.123v-4.123h-4.123z"/><path fill="#2E4469" d="M43.41 59.13h4.123v-4.123H43.41z"/><path fill="url(#g)" d="M16.544 45.13h4.124v-4.123h-4.124z" opacity=".6" transform="translate(31 14)"/><path fill="#74DFFE" d="M51.682 59.13h4.122v-4.123h-4.122z"/><path fill="url(#g)" d="M24.817 45.13h4.125v-4.123h-4.125zm4.139 0h4.121v-4.123h-4.121z" opacity=".6" transform="translate(31 14)"/><path fill="#74DFFE" d="M64.09 59.13h4.124v-4.123H64.09z"/><path fill="url(#g)" d="M37.227 45.13h4.124v-4.123h-4.124z" opacity=".6" transform="translate(31 14)"/><path fill="#2E4469" d="M72.363 59.13h4.123v-4.123h-4.123z"/><path fill="#74DFFE" d="M76.5 59.13h4.122v-4.123H76.5zm4.136 0h4.123v-4.123h-4.123zm4.137 0h4.123v-4.121h-4.123z"/><path fill="#2E4469" d="M35.137 55.027h4.123v-4.12h-4.123zm4.137 0h4.123v-4.12h-4.123zm4.136 0h4.123v-4.12H43.41zm4.134 0h4.124v-4.12h-4.124z"/><path fill="url(#g)" d="M20.682 41.027h4.122v-4.12h-4.122zm4.135 0h4.125v-4.12h-4.125zm4.139 0h4.121v-4.12h-4.121zm4.134 0h4.124v-4.12H33.09z" opacity=".6" transform="translate(31 14)"/><path fill="#2E4469" d="M68.227 55.027h4.124v-4.12h-4.124zm4.136 0h4.123v-4.12h-4.123zm4.137 0h4.122v-4.12H76.5zm4.136 0h4.123v-4.12h-4.123zm4.137 0h4.123v-4.12h-4.123zm-49.636-4.098h4.123v-4.123h-4.123zm4.137 0h4.123v-4.123h-4.123zm4.136 0h4.123v-4.123H43.41zm4.134 0h4.124v-4.123h-4.124z"/><path fill="url(#g)" d="M20.682 36.929h4.122v-4.123h-4.122z" opacity=".6" transform="translate(31 14)"/><path fill="#2E4469" d="M55.817 50.929h4.125v-4.123h-4.125zm4.139 0h4.121v-4.123h-4.121z"/><path fill="url(#g)" d="M33.09 36.929h4.124v-4.123H33.09z" opacity=".6" transform="translate(31 14)"/><path fill="#2E4469" d="M68.227 50.929h4.124v-4.123h-4.124zm4.136 0h4.123v-4.123h-4.123zm4.137 0h4.122v-4.123H76.5zm4.136 0h4.123v-4.123h-4.123zm-41.362-4.102h4.123v-4.123h-4.123zm4.136 0h4.123v-4.123H43.41zm4.134 0h4.124v-4.123h-4.124z"/><path fill="url(#g)" d="M20.682 32.827h4.122v-4.123h-4.122z" opacity=".6" transform="translate(31 14)"/><path fill="#2E4469" d="M55.817 46.827h4.125v-4.123h-4.125zm4.139 0h4.121v-4.123h-4.121zm4.134 0h4.124v-4.123H64.09z"/><path fill="#74DFFE" d="M47.544 42.726h4.124v-4.12h-4.124zm4.138 0h4.122v-4.12h-4.122zm4.135 0h4.125v-4.12h-4.125zm4.139 0h4.121v-4.12h-4.121zm4.134 0h4.124v-4.12H64.09zm4.137 0h4.124v-4.12h-4.124zm4.136 0h4.123v-4.12h-4.123z"/><path fill="#2E4469" d="M39.274 38.626h4.123v-4.121h-4.123zm4.136 0h4.123v-4.121H43.41z"/><path fill="#74DFFE" d="M47.544 38.626h4.124v-4.121h-4.124zm4.138 0h4.122v-4.121h-4.122zm4.135 0h4.125v-4.121h-4.125zm4.139 0h4.121v-4.121h-4.121z"/><path fill="#2E4469" d="M64.09 38.626h4.124v-4.121H64.09zm4.137 0h4.124v-4.121h-4.124zm4.136 0h4.123v-4.121h-4.123zm4.137 0h4.122v-4.121H76.5zm-37.226-4.101h4.123v-4.122h-4.123z"/><path fill="#74DFFE" d="M43.41 34.525h4.123v-4.122H43.41z"/><path fill="#2E4469" d="M47.544 34.525h4.124v-4.122h-4.124zm4.138 0h4.122v-4.122h-4.122z"/><path fill="#74DFFE" d="M55.817 34.525h4.125v-4.122h-4.125zm4.139 0h4.121v-4.122h-4.121zm4.134 0h4.124v-4.122H64.09z"/><path fill="#2E4469" d="M68.227 34.525h4.124v-4.122h-4.124z"/><path fill="#74DFFE" d="M72.363 34.525h4.123v-4.122h-4.123zm4.137 0h4.122v-4.122H76.5zm4.136 0h4.123v-4.122h-4.123z"/><path fill="#2E4469" d="M39.274 30.425h4.123v-4.123h-4.123z"/><path fill="#74DFFE" d="M43.41 30.425h4.123v-4.123H43.41z"/><path fill="#2E4469" d="M47.544 30.425h4.124v-4.123h-4.124z"/><path fill="#74DFFE" d="M51.682 30.425h4.122v-4.123h-4.122zm4.135 0h4.125v-4.123h-4.125zm4.139 0h4.121v-4.123h-4.121z"/><path fill="#2E4469" d="M64.09 30.425h4.124v-4.123H64.09z"/><path fill="#74DFFE" d="M68.227 30.425h4.124v-4.123h-4.124zm4.136 0h4.123v-4.123h-4.123zm4.137 0h4.122v-4.123H76.5z"/><path fill="#2E4469" d="M43.41 26.323h4.123v-4.121H43.41zm4.134 0h4.124v-4.121h-4.124zm4.138 0h4.122v-4.121h-4.122z"/><path fill="#74DFFE" d="M55.817 26.323h4.125v-4.121h-4.125zm4.139 0h4.121v-4.121h-4.121z"/><path fill="#2E4469" d="M64.09 26.323h4.124v-4.121H64.09z"/><path fill="#74DFFE" d="M68.227 26.323h4.124v-4.121h-4.124z"/><path fill="url(#g)" d="M12.41 8.222h4.123v-4.12H12.41zm4.134 0h4.124v-4.12h-4.124zm4.138 0h4.122v-4.12h-4.122zm4.135 0h4.125v-4.12h-4.125zm4.139 0h4.121v-4.12h-4.121zm4.134 0h4.124v-4.12H33.09zm4.137 0h4.124v-4.12h-4.124zm4.136 0h4.123v-4.12h-4.123zm4.137 0h4.122v-4.12H45.5z" opacity=".6" transform="translate(31 14)"/><path fill="url(#g)" d="M16.544 4.123h4.124V.001h-4.124zm4.138 0h4.123V.001h-4.123zm4.137 0h4.123V.001h-4.123zm4.137 0h4.121V.001h-4.121zm4.134 0h4.124V.001H33.09z" opacity=".6" transform="translate(31 14)"/></g><g mask="url(#b)"><g transform="translate(66 33)"><path stroke="url(#d)" stroke-width="2" d="M2.043 91.751l43.085-52.216L33.335 3.486l-28.36 15.35"/><circle cx="5" cy="18" r="5" fill="#328AF1" filter="url(#h)"/><circle cx="45" cy="39" r="4" fill="url(#i)"/><path fill="#FFF" fill-opacity=".2" d="M42.524 41.857a3.81 3.81 0 1 1 5.334-5.334 3.81 3.81 0 0 0-5.334 5.334z"/><circle cx="33.5" cy="3.5" r="3.5" fill="url(#i)"/><path fill="#FFF" fill-opacity=".2" d="M31.333 6A3.333 3.333 0 1 1 36 1.333 3.333 3.333 0 0 0 31.333 6z"/><circle cx="5.5" cy="18" r="2.5" fill="url(#i)"/><path fill="#FFF" fill-opacity=".2" d="M3.952 19.786a2.38 2.38 0 1 1 3.333-3.333 2.38 2.38 0 0 0-3.333 3.333z"/></g></g><use stroke="url(#j)" xlink:href="#k"/></g></svg>