<svg xmlns="http://www.w3.org/2000/svg" xmlns:xlink="http://www.w3.org/1999/xlink" width="122" height="122">
  <defs>
    <linearGradient id="e" x1="36.389%" x2="36.389%" y1="0%" y2="39.062%">
      <stop offset="0%" stop-color="#00F4FF"/>
      <stop offset="100%" stop-color="#00E4FF" stop-opacity="0"/>
    </linearGradient>
    <linearGradient id="i" x1="0%" y1="50%" y2="50%">
      <stop offset="0%" stop-color="#5B79A2"/>
      <stop offset="100%" stop-color="#2E4469"/>
    </linearGradient>
    <linearGradient id="j" x1="40.853%" x2="55.587%" y1="9.244%" y2="90.654%">
      <stop offset="0%" stop-color="#5B79A2"/>
      <stop offset="100%" stop-color="#2E4469"/>
    </linearGradient>
    <linearGradient id="k" x1="0%" y1="50%" y2="50%">
      <stop offset="0%" stop-color="#5B79A2"/>
      <stop offset="100%" stop-color="#2E4469"/>
    </linearGradient>
    <linearGradient id="l" x1="0%" y1="50%" y2="50%">
      <stop offset="0%" stop-color="#5B79A2"/>
      <stop offset="100%" stop-color="#2E4469"/>
    </linearGradient>
    <linearGradient id="n" x1="98.741%" x2="1.259%" y1="48.741%" y2="48.741%">
      <stop offset="0%" stop-color="#21C8F6"/>
      <stop offset="100%" stop-color="#637BFF"/>
    </linearGradient>
    <linearGradient id="o" x1="98.741%" x2="1.259%" y1="48.741%" y2="48.741%">
      <stop offset="0%" stop-color="#21C8F6"/>
      <stop offset="100%" stop-color="#637BFF"/>
    </linearGradient>
    <linearGradient id="r" x1="98.741%" x2="1.259%" y1="48.741%" y2="48.741%">
      <stop offset="0%" stop-color="#21C8F6"/>
      <stop offset="100%" stop-color="#637BFF"/>
    </linearGradient>
    <linearGradient id="t" x1="24.379%" x2="84.171%" y1="5.536%" y2="97.907%">
      <stop offset="0%" stop-color="#76E1FF"/>
      <stop offset="100%" stop-color="#637BFF" stop-opacity="0"/>
    </linearGradient>
    <linearGradient id="v" x1="0%" y1="50%" y2="50%">
      <stop offset="0%" stop-color="#6F90BC"/>
      <stop offset="100%" stop-color="#2E4469"/>
    </linearGradient>
    <linearGradient id="w" x1="53.827%" x2="81.644%" y1="42.349%" y2="64.984%">
      <stop offset="0%" stop-color="#335598"/>
      <stop offset="100%" stop-color="#0F1C3C"/>
    </linearGradient>
    <linearGradient id="y" x1="0%" y1="50%" y2="50%">
      <stop offset="0%" stop-color="#6F90BC"/>
      <stop offset="100%" stop-color="#2E4469"/>
    </linearGradient>
    <radialGradient id="c" cy="93.393%" r="83.688%" fx="50%" fy="93.393%" gradientTransform="matrix(0 -1 .6103 0 -.07 1.434)">
      <stop offset="0%" stop-color="#38D4FB"/>
      <stop offset="100%" stop-color="#56F5FE" stop-opacity="0"/>
    </radialGradient>
    <radialGradient id="f" cx="13.24%" cy="63.095%" r="101.016%" fx="13.24%" fy="63.095%" gradientTransform="scale(1 .65768) rotate(-38.626 .6 .795)">
      <stop offset="0%" stop-color="#AFEDFF"/>
      <stop offset="100%" stop-color="#77D7FF"/>
    </radialGradient>
    <radialGradient id="x" r="59.691%" fx="50%" fy="50%" gradientTransform="matrix(0 .99994 -1 0 1 0)">
      <stop offset="0%" stop-color="#21C8F6"/>
      <stop offset="100%" stop-color="#4BDEFF"/>
    </radialGradient>
    <path id="b" d="M118.87 61.238c0 32.694-26.504 59.196-59.2 59.196-32.694 0-59.194-26.502-59.194-59.196 0-32.692 26.5-59.196 59.194-59.196 32.696 0 59.2 26.504 59.2 59.196"/>
    <path id="g" d="M50.574 33.038C52.752 13.452 40.04 0 24.818 0 9.602 0-1.908 12.698.264 33.876c.916 8.896-.22 24.826 7.254 32.384 5.406 5.466 3.138 3.368 10.556 8.444 0 0 7.182 5.202 14.732.786 6.02-4.428 13.092-6.538 15.734-15.686 1.928-6.676 1.278-19.952 2.034-26.766"/>
    <path id="h" d="M24.818 0C39.57 0 51.967 12.637 50.733 31.247 49.643 15.239 38.201 4.068 24.818 4.068 11.493 4.068 1.01 14.572.068 31.405-.991 11.715 10.204 0 24.819 0z"/>
    <ellipse id="m" cx="12.949" cy="12.892" rx="12.949" ry="12.892"/>
    <ellipse id="q" cx="12.949" cy="12.892" rx="12.949" ry="12.892"/>
    <circle id="a" cx="60" cy="60" r="60"/>
    <circle id="u" cx="60" cy="60" r="60"/>
  </defs>
  <g fill="none" fill-rule="evenodd">
    <g transform="translate(1 1)">
      <use fill="#000" fill-opacity=".152" xlink:href="#a"/>
      <mask id="d" fill="#fff">
        <use xlink:href="#b"/>
      </mask>
      <path fill="url(#c)" d="M-10 78.806C-1.229 54.936 22.374 43 60.808 43 99.243 43 120.973 54.935 126 78.806V126H-10V78.806z" mask="url(#d)"/>
      <path stroke="url(#e)" d="M98.246 108.592l-25.284-7.314-13.076-.918v-.038l-.252.018-.248-.018v.038l-13.08.918-25.282 7.314s-13.31 5.406-12.144 21.15h101.51c1.168-15.744-12.144-21.15-12.144-21.15" mask="url(#d)"/>
      <g mask="url(#d)">
        <path fill="#77D7FF" d="M80.444 56.166s3.316-4.692 6.054-2.706c0 0 1.66 1.68.544 5.898a32.666 32.666 0 00-.506 2.314 15.2 15.2 0 00-.24 1.832c-.034.632.152 1.306-.018 1.928-.354 1.292-.98 2.676-2.112 3.45-.488.332-1.04.58-1.632.622-.25.02-2.186-.19-2.182-.466l.092-12.872"/>
        <path fill="#61C5FF" d="M80.432 57.59s2.678-3.782 4.88-2.182c0 0 1.34 1.356.442 4.756-.16.616-.294 1.24-.408 1.866-.088.482-.166.986-.194 1.476-.028.51.12 1.054-.014 1.556-.286 1.044-.79 2.158-1.702 2.78-.394.27-.838.466-1.316.502-.202.016-1.764-.15-1.764-.376l.076-10.378"/>
        <path fill="#77D7FF" d="M37.02 56.166s-3.316-4.692-6.054-2.706c0 0-1.66 1.68-.544 5.898.202.764.364 1.538.506 2.314.11.598.206 1.222.238 1.832.036.632-.15 1.306.022 1.928.35 1.292.976 2.676 2.11 3.45.488.332 1.036.58 1.63.622.252.02 2.19-.19 2.186-.466l-.094-12.872"/>
        <path fill="#61C5FF" d="M37.032 57.59s-2.676-3.782-4.88-2.182c0 0-1.34 1.356-.442 4.756.16.616.292 1.24.408 1.866.088.482.168.986.192 1.476.028.51-.118 1.054.018 1.556.284 1.044.79 2.158 1.702 2.78.392.27.836.466 1.316.502.2.016 1.764-.15 1.764-.376l-.078-10.378"/>
        <path fill="#77D7FF" d="M47.176 87.512s2.572 11.032-2.898 16.018h30.79s-6.464-8.596-2.974-17.264l-24.918 1.246"/>
        <path fill="#61C5FF" d="M47.688 95.348c1.114.878 2.376 1.522 3.734 2.044 3.156 1.22 6.496 1.802 9.832.964 3.178-.796 6.288-2.684 8.108-5.468.852-1.304 1.374-2.77 2.022-4.178.164-.812.382-1.626.71-2.444l-24.918 1.246s.862 3.732.512 7.836"/>
        <g transform="translate(33.312 15.932)">
          <use fill="url(#f)" xlink:href="#g"/>
          <use fill="#000" fill-opacity=".078" xlink:href="#h"/>
        </g>
        <path fill="#77D7FF" d="M98.246 108.592l-25.284-7.314-13.076-.918v-.038l-.252.018-.248-.018v.038l-13.08.918-25.282 7.314s-13.31 5.406-12.144 21.15h101.51c1.168-15.744-12.144-21.15-12.144-21.15"/>
        <path fill="url(#i)" d="M73.668 88.098l15.77 4.562s13.312 5.406 12.144 21.15H.072c-1.166-15.744 12.154-21.152 12.154-21.152l17.49-5.06s19.094 24.722 43.952.5" transform="translate(8.808 15.932)"/>
      </g>
      <path stroke="url(#j)" stroke-linecap="round" stroke-width="2" d="M26.666 69.54c3.825 8.29 10.457 20.936 9.773 28.728-.684 7.792 7.166 4.782 10.737 9.806 2.38 3.35 3.15 7.194 2.307 11.532" mask="url(#d)"/>
      <g mask="url(#d)">
        <path fill="#25395B" d="M88.437 49.978c-.963-.004-1.82 1.182-1.818 2.62l.133 18.757c-.201.853.103 1.763.763 2.275a1.751 1.751 0 002.182.011c.65-.505.94-1.411.723-2.267l-.127-18.673a2.532 2.532 0 00-.4-1.8c-.351-.515-.879-.85-1.456-.923zM28.638 72.02c1.15-.177 1.953-1.344 1.813-2.635l-.135-18.756c.117-1.285-.7-2.459-1.848-2.656-.584.04-1.123.344-1.496.84a2.569 2.569 0 00-.48 1.794l.19 18.752a2.63 2.63 0 00.487 1.777c.367.5.896.818 1.469.884z"/>
        <path fill="url(#k)" d="M64.038 45.894a2.067 2.067 0 00-2.143 1.846l-.989 14.021a1.996 1.996 0 001.86 2.127 2.002 2.002 0 002.143-1.847l.978-14.02a1.883 1.883 0 00-.449-1.47 1.913 1.913 0 00-1.4-.657zM9.112 58.128c1.033.054 1.937-.7 2.09-1.744l.97-14.218c.026-1.067-.78-1.963-1.825-2.026-1.066-.102-2.028.654-2.205 1.731l-.97 14.136c-.014 1.123.841 2.058 1.94 2.12z" transform="rotate(-4 176.216 -257.967)"/>
        <path fill="#8D88FF" fill-rule="nonzero" d="M93.376 39.394a38.33 38.33 0 00-2.593-7.888 8.13 8.13 0 00.19-1.66 6.446 6.446 0 00-.692-2.745c-1.567-2.739-3.606-5.073-5.982-6.85-2.242-1.693-9.355-9.98-26.379-10.187-17.023-.206-23.948 7.93-26.192 9.566-2.329 1.728-4.311 4.013-5.82 6.71a5.622 5.622 0 00-.584 2.738 9.45 9.45 0 00.228 1.666 34.997 34.997 0 00-2.515 7.827 51.657 51.657 0 00-.916 9.97l.107 10.735c-.007 2.436.583 4.838 1.7 6.924.739 1.345 1.874 2.333 3.185 2.773l-.178-19.18c-1.26.312-2.352 1.2-3.033 2.468l-.044-3.697c-.029-3 .25-5.984.828-8.89A35.385 35.385 0 0126.86 32.8c.231.106.479.15.724.129.601-.038 1.154-.377 1.517-.93 1.15-2.073 2.655-3.84 4.426-5.19 1.726-1.16 9.88-10.825 24.462-10.651 14.581.174 22.925 10.141 24.676 11.236 1.816 1.313 3.366 3.076 4.536 5.162.363.671.967 1.117 1.637 1.21.244.028.49-.01.717-.11a40.598 40.598 0 012.312 6.928 43.067 43.067 0 011.001 8.918l.044 3.685c-.715-1.28-1.823-2.196-3.089-2.553l.197 19.167c1.31-.387 2.43-1.35 3.13-2.69 1.091-2.053 1.634-4.449 1.56-6.888l-.107-10.735a46.458 46.458 0 00-1.227-10.095z" opacity=".24"/>
        <path fill="url(#l)" d="M72.694 34.904a38.387 38.387 0 00-2.036-8.053 8.11 8.11 0 00.305-1.644 6.477 6.477 0 00-.447-2.788c-1.375-2.841-3.244-5.313-5.487-7.255-2.127-1.847-8.683-10.615-25.641-12.01-16.959-1.393-24.43 6.243-26.782 7.72-2.455 1.56-4.603 3.707-6.3 6.303a5.473 5.473 0 00-.764 2.68 8.522 8.522 0 00.102 1.68 35.532 35.532 0 00-3.054 7.637 51.714 51.714 0 00-1.608 9.9L.34 49.796c-.193 2.427.229 4.868 1.212 7.017.642 1.4 1.71 2.468 2.992 2.99l1.14-19.133c-1.277.229-2.425 1.038-3.196 2.252l.224-3.681a41.813 41.813 0 011.486-8.804 34.23 34.23 0 012.647-6.72c.22.123.46.184.702.18.604.013 1.182-.288 1.578-.823 1.29-1.99 2.92-3.644 4.784-4.86 1.792-1.049 10.597-10.127 25.122-8.936 14.526 1.192 22.15 11.628 23.87 12.879 1.689 1.45 3.08 3.322 4.072 5.48.324.686.89 1.17 1.547 1.322.243.035.49.011.723-.071a40.94 40.94 0 011.822 7.076c.439 2.97.565 5.99.377 8.995l-.214 3.681c-.614-1.307-1.64-2.282-2.86-2.716l-1.14 19.062c1.319-.28 2.5-1.131 3.308-2.383 1.229-1.97 1.937-4.319 2.036-6.755l.641-10.722c.203-3.42.028-6.855-.52-10.222z" transform="rotate(-4 176.216 -257.967)"/>
      </g>
      <g mask="url(#d)" style="mix-blend-mode:luminosity">
        <g transform="translate(29.709 43.586)">
          <mask id="p" fill="#fff">
            <use xlink:href="#m"/>
          </mask>
          <use fill="url(#n)" opacity=".398" xlink:href="#m"/>
          <path fill="url(#o)" d="M12.724.712L2.513 20.071l7.183 5.883L20.608 3.336z" mask="url(#p)" opacity=".309"/>
        </g>
        <g transform="translate(63.257 43.586)">
          <mask id="s" fill="#fff">
            <use xlink:href="#q"/>
          </mask>
          <use fill="url(#n)" opacity=".398" xlink:href="#q"/>
          <path fill="url(#r)" d="M13.172.1L2.445 20.07 9.7 25.825l10.436-21.82z" mask="url(#s)" opacity=".309"/>
        </g>
        <path fill="#1B283E" stroke="#1B283E" stroke-width=".917" d="M75.927 68.669c-6.617 0-11.98-5.327-11.98-11.898 0-6.57 5.363-11.897 11.98-11.897s11.981 5.327 11.981 11.897c0 6.571-5.364 11.898-11.98 11.898zm-33.455 0c-6.617 0-11.98-5.327-11.98-11.898 0-6.57 5.363-11.897 11.98-11.897s11.98 5.327 11.98 11.897c0 6.571-5.363 11.898-11.98 11.898zM88.59 49.474c-1.001-1.147-2.901-2.632-4.04-3.482a13.836 13.836 0 00-.903-.661l-.02-.015v.002a13.87 13.87 0 00-7.7-2.318 13.874 13.874 0 00-9.823 4.05c-1.216 1.129-2.264 2.364-3.347 3.574-1.373 1.533-2.185.78-3.557.78-1.373 0-2.185.753-3.558-.78-1.083-1.21-2.131-2.445-3.347-3.573A13.974 13.974 0 0042.43 43c-2.85 0-5.667.855-7.742 2.318v-.002l.021.015c-.312.208-.591.43-.884.661-1.138.85-3.088 2.335-4.088 3.482C28.25 51.178 25 51.29 25 51.29v3.521s1.945-.114 2.574.625c.371.435.772 2.533 1.426 4.728.2.782.484 1.536.812 2.258.306.718.664 1.383 1.073 1.929l.004-.004a13.882 13.882 0 0011.581 6.194c5.62 0 10.456-3.32 12.635-8.092l.01-.013.033-.053c.995-1.678 1.998-6.273 2.45-7.004.458-.738 1.602-.795 1.602-.795s1.143.057 1.6.795c.454.73 1.456 5.326 2.451 7.004l.033.053.01.013a13.873 13.873 0 0012.633 8.092c4.84 0 9.098-2.463 11.579-6.194v.004c.41-.546.76-1.21 1.067-1.929.328-.722.597-1.476.797-2.258.654-2.195 1.021-4.293 1.393-4.728.629-.739 2.511-.625 2.511-.625v-3.52s-3.197-.114-4.684-1.818z"/>
      </g>
      <use stroke="url(#t)" xlink:href="#u"/>
    </g>
    <path fill="#25395B" d="M36.755 116.395l-5.701-16.008 4.313-.57 6.399 18.514z"/>
    <path fill="url(#v)" d="M16.5 26.734l-5.312 5.908 7.087 6.357a3.983 3.983 0 005.369-5.885l-7.144-6.38z" transform="translate(11.813 64.207)"/>
    <path fill="url(#w)" fill-rule="nonzero" d="M30.175 19.224l-8.132-7.211L1.871 37.027A3.572 3.572 0 007.183 41.8l22.992-22.576z" transform="translate(12.02 64.124)"/>
    <path fill="url(#x)" d="M28.514 1.046C34.449.8 39.465 5.401 39.732 11.336c.266 5.934-4.317 10.966-10.25 11.254-5.934.287-10.982-4.279-11.29-10.21A10.805 10.805 0 0128.514 1.045z" transform="translate(12.559 64.6)"/>
    <path fill="#3450C5" fill-rule="nonzero" d="M52.29 75.936c.224 4.97-2.956 9.309-7.482 10.755a10.735 10.735 0 002.093-6.882c-.266-5.934-5.282-10.535-11.218-10.29a10.79 10.79 0 00-2.838.51 10.805 10.805 0 018.227-4.382c5.936-.246 10.952 4.355 11.218 10.289z" opacity=".099"/>
    <g transform="translate(16.362 84.112)">
      <path fill="#E6E9EE" d="M18.106 9.289l-9.199 8.918a1.393 1.393 0 01-1.91 0L.742 12.591a1.382 1.382 0 01-.213-1.898L8.39.719A1.426 1.426 0 0110.4.494l7.549 6.74a1.37 1.37 0 01.157 2.055z"/>
      <path fill="url(#y)" d="M18.106 9.289l-9.199 8.918a1.393 1.393 0 01-1.91 0L.742 12.591a1.382 1.382 0 01-.213-1.898L8.39.719A1.426 1.426 0 0110.4.494l7.549 6.74a1.37 1.37 0 01.157 2.055z"/>
      <ellipse cx="15.892" cy="16.084" fill="#25395B" rx="1.797" ry="2.022" transform="rotate(-3 15.892 16.084)"/>
    </g>
  </g>
</svg>
